<?xml version="1.0" encoding="utf-8"?>
<!-- Generator: Adobe Illustrator 27.1.1, SVG Export Plug-In . SVG Version: 6.00 Build 0)  -->
<svg version="1.1" id="Layer_1" xmlns="http://www.w3.org/2000/svg" xmlns:xlink="http://www.w3.org/1999/xlink" x="0px" y="0px"
	 viewBox="0 0 1150 1200" style="enable-background:new 0 0 1150 1200;" xml:space="preserve">
<style type="text/css">
	.st0{fill:#0073B4;}
	.st1{fill:#FAAF32;}
</style>
<g>
	<g>
		<g>
			<path class="st0" d="M193.5,863.1l-39.6,121h-30.1l-26.6-81.9l-27.5,81.9H39.9l-39.7-121h29l27.3,85l28.5-85h25.9l27.7,85.7
				l28.2-85.7H193.5z"/>
			<path class="st0" d="M232.3,978c-10.1-5.4-18-12.9-23.7-22.4c-5.7-9.5-8.6-20.2-8.6-32.1c0-11.9,2.9-22.6,8.6-32.1
				c5.7-9.5,13.6-17,23.7-22.4c10.1-5.4,21.4-8.1,34-8.1c12.6,0,23.8,2.7,33.9,8.1c10,5.4,17.9,12.9,23.7,22.4
				c5.8,9.5,8.6,20.2,8.6,32.1c0,11.9-2.9,22.6-8.6,32.1c-5.8,9.5-13.7,17-23.7,22.4c-10,5.4-21.3,8.1-33.9,8.1
				C253.7,986.1,242.4,983.4,232.3,978z M285.6,957.4c5.8-3.3,10.3-7.9,13.6-13.7c3.3-5.9,4.9-12.6,4.9-20s-1.6-14.2-4.9-20
				c-3.3-5.9-7.8-10.5-13.6-13.7c-5.8-3.3-12.2-4.9-19.4-4.9c-7.1,0-13.6,1.6-19.4,4.9c-5.8,3.3-10.3,7.9-13.6,13.7
				c-3.3,5.9-4.9,12.6-4.9,20s1.6,14.2,4.9,20c3.3,5.9,7.8,10.5,13.6,13.7c5.8,3.3,12.2,4.9,19.4,4.9
				C273.4,962.3,279.9,960.7,285.6,957.4z"/>
			<path class="st0" d="M430.6,984.1l-23.3-33.7h-1.4h-24.4v33.7h-28v-121h52.4c10.7,0,20,1.8,27.9,5.4c7.9,3.6,14,8.6,18.2,15.2
				c4.3,6.6,6.4,14.3,6.4,23.3c0,9-2.2,16.7-6.5,23.2c-4.3,6.5-10.5,11.5-18.4,14.9l27.1,38.9H430.6z M423.5,891.4
				c-4.4-3.6-10.8-5.4-19.2-5.4h-22.8v42.2h22.8c8.4,0,14.8-1.8,19.2-5.5c4.4-3.7,6.6-8.9,6.6-15.6
				C430.1,900.2,427.9,895,423.5,891.4z"/>
			<path class="st0" d="M480.6,863.1h55c13.1,0,24.7,2.5,34.8,7.5s17.9,12.1,23.5,21.2c5.6,9.1,8.4,19.7,8.4,31.8
				c0,12.1-2.8,22.7-8.4,31.8c-5.6,9.1-13.4,16.2-23.5,21.2s-21.7,7.5-34.8,7.5h-55V863.1z M534.1,961.1c12.1,0,21.7-3.4,28.9-10.1
				c7.2-6.7,10.8-15.9,10.8-27.4s-3.6-20.7-10.8-27.4c-7.2-6.7-16.8-10.1-28.9-10.1h-25.6v75H534.1z"/>
			<path class="st0" d="M647.8,978.1c-10-5.4-17.8-12.8-23.5-22.3c-5.7-9.5-8.6-20.2-8.6-32.2c0-12,2.8-22.7,8.6-32.2
				c5.7-9.5,13.5-16.9,23.5-22.3c10-5.4,21.2-8,33.6-8c10.5,0,20,1.8,28.4,5.5c8.5,3.7,15.6,9,21.3,15.9l-18,16.6
				c-8.2-9.4-18.3-14.2-30.4-14.2c-7.5,0-14.2,1.6-20,4.9c-5.9,3.3-10.5,7.9-13.7,13.7c-3.3,5.9-4.9,12.6-4.9,20s1.6,14.2,4.9,20
				c3.3,5.9,7.9,10.5,13.7,13.7c5.9,3.3,12.6,4.9,20,4.9c12.1,0,22.2-4.8,30.4-14.3l18,16.6c-5.8,7-12.9,12.4-21.4,16.1
				c-8.5,3.7-18,5.5-28.5,5.5C668.9,986.1,657.7,983.5,647.8,978.1z"/>
			<path class="st0" d="M827.2,958.2h-56.2l-10.7,25.9h-28.7l53.9-121h27.7l54.1,121h-29.4L827.2,958.2z M818.4,936.9l-19.2-46.3
				L780,936.9H818.4z"/>
			<path class="st0" d="M990,984.1l-0.2-72.6l-35.6,59.8h-12.6L906.2,913v71h-26.3v-121h23.2l45.3,75.2l44.6-75.2h23l0.3,121H990z"
				/>
			<path class="st0" d="M1125.3,868.5c7.9,3.6,14,8.6,18.2,15.2c4.3,6.6,6.4,14.3,6.4,23.3c0,8.9-2.1,16.6-6.4,23.2
				c-4.3,6.6-10.3,11.7-18.2,15.2c-7.9,3.5-17.2,5.3-27.9,5.3H1073v33.4h-28v-121h52.4C1108.1,863.1,1117.4,864.9,1125.3,868.5z
				 M1115,922.5c4.4-3.6,6.6-8.8,6.6-15.5c0-6.8-2.2-12-6.6-15.6c-4.4-3.6-10.8-5.4-19.2-5.4H1073v42h22.8
				C1104.2,927.9,1110.6,926.1,1115,922.5z"/>
		</g>
		<g>
			<g>
				<path class="st0" d="M16.9,1072.4h13.4v115h70.9v11.6H16.9V1072.4z"/>
				<path class="st0" d="M123.4,1072.4h13.4v126.6h-13.4V1072.4z"/>
				<path class="st0" d="M185.9,1195.5c-8.6-3-15.3-7-20-11.9l5.2-10.3c4.6,4.6,10.7,8.3,18.3,11.1c7.6,2.8,15.4,4.2,23.5,4.2
					c11.3,0,19.8-2.1,25.5-6.2c5.7-4.2,8.5-9.6,8.5-16.2c0-5.1-1.5-9.1-4.6-12.1c-3.1-3-6.8-5.3-11.3-7c-4.5-1.6-10.7-3.4-18.6-5.3
					c-9.5-2.4-17.1-4.7-22.8-7c-5.7-2.2-10.5-5.6-14.6-10.2c-4-4.6-6.1-10.8-6.1-18.6c0-6.4,1.7-12.2,5.1-17.4
					c3.4-5.2,8.6-9.4,15.5-12.6s15.7-4.7,26-4.7c7.2,0,14.3,1,21.2,3c6.9,2,12.9,4.7,18,8.2l-4.5,10.7c-5.3-3.5-11-6.1-17-7.9
					c-6-1.7-11.9-2.6-17.7-2.6c-11.1,0-19.4,2.1-25,6.4c-5.6,4.3-8.4,9.8-8.4,16.5c0,5.1,1.5,9.1,4.6,12.2c3.1,3.1,6.9,5.4,11.6,7.1
					c4.6,1.6,10.9,3.4,18.7,5.3c9.3,2.3,16.8,4.5,22.5,6.8c5.7,2.2,10.6,5.6,14.6,10.1c4,4.5,6,10.6,6,18.4c0,6.4-1.7,12.2-5.2,17.4
					c-3.4,5.2-8.7,9.4-15.8,12.5s-15.8,4.6-26.2,4.6C203.5,1200,194.5,1198.5,185.9,1195.5z"/>
				<path class="st0" d="M388.2,1144.4c4.5,5.4,6.8,12.3,6.8,20.7c0,10.8-4,19.2-12,25c-8,5.8-19.9,8.8-35.5,8.8h-58.2v-126.6h54.6
					c14.1,0,25,2.8,32.8,8.5c7.8,5.7,11.7,13.7,11.7,24c0,7-1.7,12.9-5.2,17.8c-3.4,4.9-8.2,8.5-14.2,10.9
					C377.2,1135.5,383.7,1139,388.2,1144.4z M302.6,1083.4v45.9h40.3c10.2,0,18.1-2,23.7-5.9c5.5-3.9,8.3-9.6,8.3-17.1
					c0-7.5-2.8-13.2-8.3-17.1c-5.5-3.9-13.4-5.9-23.7-5.9H302.6z M372.9,1182.1c5.8-3.9,8.7-9.9,8.7-18.1
					c0-15.8-11.5-23.7-34.4-23.7h-44.7v47.5h44.7C358.6,1187.9,367.1,1186,372.9,1182.1z"/>
				<path class="st0" d="M446.8,1191.6c-10.2-5.6-18.1-13.3-23.9-23.1c-5.7-9.8-8.6-20.7-8.6-32.9s2.9-23.1,8.6-32.9
					c5.7-9.8,13.7-17.4,23.9-23.1c10.2-5.6,21.5-8.4,34.1-8.4c12.5,0,23.8,2.8,33.9,8.3c10.1,5.5,18,13.2,23.8,23.1
					c5.8,9.8,8.7,20.8,8.7,33s-2.9,23.2-8.7,33s-13.7,17.5-23.8,23.1c-10.1,5.5-21.4,8.3-33.9,8.3
					C468.3,1200,456.9,1197.2,446.8,1191.6z M508,1181.3c8.1-4.5,14.4-10.8,19-18.8c4.6-8,6.9-17,6.9-26.8c0-9.9-2.3-18.8-6.9-26.8
					c-4.6-8-10.9-14.3-19-18.8c-8.1-4.5-17.1-6.8-27.1-6.8c-10,0-19.1,2.3-27.2,6.8c-8.1,4.5-14.5,10.8-19.2,18.8
					c-4.6,8-7,17-7,26.8c0,9.9,2.3,18.8,7,26.8c4.6,8,11,14.3,19.2,18.8c8.1,4.5,17.2,6.8,27.2,6.8
					C490.8,1188.1,499.9,1185.8,508,1181.3z"/>
				<path class="st0" d="M654.8,1165.1h-70.5l-15.2,33.8h-13.9l57.9-126.6h13.2l57.9,126.6h-14.1L654.8,1165.1z M649.9,1154.3
					l-30.4-68l-30.4,68H649.9z"/>
			</g>
			<g>
				<path class="st1" d="M828.6,1187.3v11.6h-88.8v-9.2l52.6-51.5c6.6-6.5,11.1-12.1,13.5-16.9c2.4-4.8,3.5-9.6,3.5-14.4
					c0-7.5-2.6-13.3-7.7-17.4c-5.1-4.2-12.4-6.2-22-6.2c-14.8,0-26.3,4.7-34.5,14.1l-9.2-8c4.9-5.8,11.2-10.2,18.9-13.4
					c7.7-3.1,16.3-4.7,25.9-4.7c12.9,0,23.1,3,30.6,9.1c7.5,6.1,11.3,14.4,11.3,25c0,6.5-1.4,12.8-4.3,18.8c-2.9,6-8.4,13-16.5,20.8
					l-43,42.3H828.6z"/>
				<path class="st1" d="M868.5,1192.2c-7.7-5.2-13.6-12.6-17.9-22.3c-4.3-9.7-6.4-21.1-6.4-34.3s2.1-24.6,6.4-34.3
					c4.3-9.7,10.2-17.1,17.9-22.3c7.7-5.2,16.4-7.8,26.1-7.8s18.5,2.6,26.1,7.8c7.7,5.2,13.6,12.6,18,22.3
					c4.3,9.7,6.5,21.1,6.5,34.3s-2.2,24.6-6.5,34.3c-4.3,9.7-10.3,17.1-18,22.3c-7.7,5.2-16.4,7.8-26.1,7.8
					S876.1,1197.4,868.5,1192.2z M914,1181.9c5.6-4.1,10-10.1,13.1-17.9c3.1-7.8,4.7-17.3,4.7-28.4c0-11.1-1.6-20.6-4.7-28.4
					c-3.1-7.8-7.5-13.8-13.1-17.9c-5.6-4.1-12.1-6.1-19.4-6.1c-7.4,0-13.8,2.1-19.4,6.1c-5.6,4.1-10,10.1-13.1,17.9
					c-3.1,7.8-4.7,17.3-4.7,28.4c0,11.1,1.6,20.6,4.7,28.4c3.1,7.8,7.5,13.8,13.1,17.9c5.6,4.1,12.1,6.1,19.4,6.1
					C901.9,1188.1,908.4,1186,914,1181.9z"/>
				<path class="st1" d="M1049.9,1187.3v11.6h-88.8v-9.2l52.6-51.5c6.6-6.5,11.1-12.1,13.5-16.9c2.4-4.8,3.5-9.6,3.5-14.4
					c0-7.5-2.6-13.3-7.7-17.4c-5.1-4.2-12.4-6.2-22-6.2c-14.8,0-26.3,4.7-34.5,14.1l-9.2-8c4.9-5.8,11.2-10.2,18.9-13.4
					c7.7-3.1,16.3-4.7,25.9-4.7c12.9,0,23.1,3,30.6,9.1c7.5,6.1,11.3,14.4,11.3,25c0,6.5-1.4,12.8-4.3,18.8c-2.9,6-8.4,13-16.5,20.8
					l-43,42.3H1049.9z"/>
				<path class="st1" d="M1139.5,1137.4c6.9,6.4,10.4,14.9,10.4,25.2c0,7.2-1.7,13.6-5.2,19.3c-3.5,5.6-8.7,10-15.5,13.3
					c-6.9,3.3-15.3,4.9-25.1,4.9c-9.2,0-17.8-1.5-25.9-4.4c-8.1-3-14.7-6.9-19.6-11.8l6.3-10.3c4.2,4.3,9.8,7.9,16.8,10.6
					c7,2.7,14.5,4.1,22.4,4.1c10.4,0,18.4-2.3,24-6.8c5.7-4.5,8.5-10.8,8.5-18.7c0-7.8-2.8-14-8.5-18.4c-5.7-4.5-14.2-6.7-25.7-6.7
					h-9v-9.6l35.1-43.9h-64.7v-11.6h81.4v9.2l-35.8,45C1122.4,1127.3,1132.5,1130.9,1139.5,1137.4z"/>
			</g>
		</g>
	</g>
	<g>
		<path class="st0" d="M255.6,692.6c-6.3,2.7-27.4,12.6-28.1,20.1c-0.1,0.9,0.8,1.5,1.7,1.3c17.9-3.6,35.5-5.5,50.9-0.3
			c12.4,4.6,50.4,16.8,37.9-9C306.5,683.8,275.8,683.2,255.6,692.6z"/>
		<path class="st0" d="M242.7,679.7c9.4-20.3,8.8-51-12.2-62.5c-25.8-12.5-13.6,25.5-9,38c5.2,15.4,3.3,33.1-0.3,51
			c-0.2,0.9,0.5,1.7,1.3,1.7C230.2,707.1,240,686,242.7,679.7z"/>
		<path class="st0" d="M240.2,695.2c2,2,30.9-13.6,41.8-24.6c14.8-14.9,16.7-24.5,11.9-29.3s-14.4-2.9-29.2,12
			C253.7,664.3,237.9,692.9,240.2,695.2z"/>
		<path class="st0" d="M894.4,692.6c-20.2-9.4-50.9-8.9-62.4,12.2c-12.5,25.8,25.5,13.6,37.9,9c15.4-5.2,33.1-3.3,51,0.3
			c0.9,0.2,1.7-0.5,1.7-1.3C921.8,705.2,900.7,695.3,894.4,692.6z"/>
		<path class="st0" d="M919.5,617.2c-21,11.5-21.6,42.2-12.2,62.5c2.7,6.3,12.6,27.4,20.1,28.2c0.9,0.1,1.5-0.8,1.3-1.7
			c-3.6-17.9-5.4-35.6-0.3-51C933.1,642.7,945.3,604.7,919.5,617.2z"/>
		<path class="st0" d="M909.8,695.2c2.3-2.3-13.6-30.9-24.5-41.9c-14.8-14.9-24.5-16.7-29.2-12c-4.8,4.8-2.9,14.4,11.9,29.3
			C879,681.6,907.8,697.2,909.8,695.2z"/>
		<path class="st0" d="M894.4,28.2c6.3-2.7,27.4-12.6,28.1-20.1c0.1-0.9-0.8-1.5-1.7-1.3c-17.9,3.6-35.5,5.5-51,0.3
			c-12.4-4.6-50.4-16.8-37.9,9C843.5,37,874.2,37.6,894.4,28.2z"/>
		<path class="st0" d="M907.3,41.1c-9.4,20.3-8.8,51,12.2,62.5c25.8,12.5,13.6-25.5,9-38c-5.2-15.4-3.3-33.1,0.3-51
			c0.2-0.9-0.5-1.7-1.3-1.7C919.8,13.6,910,34.8,907.3,41.1z"/>
		<path class="st0" d="M909.8,25.6c-2-2-30.9,13.6-41.8,24.6c-14.8,14.9-16.7,24.5-11.9,29.3c4.8,4.8,14.4,2.9,29.2-12
			C896.3,56.5,912.1,27.9,909.8,25.6z"/>
		<path class="st0" d="M255.6,28.2C275.8,37.6,306.5,37,318,16c12.5-25.8-25.5-13.6-37.9-9c-15.4,5.2-33.1,3.3-50.9-0.3
			c-0.9-0.2-1.7,0.5-1.7,1.3C228.2,15.6,249.3,25.5,255.6,28.2z"/>
		<path class="st0" d="M230.5,103.6c21-11.5,21.6-42.2,12.2-62.5c-2.7-6.3-12.6-27.4-20.1-28.2c-0.9-0.1-1.5,0.8-1.3,1.7
			c3.6,17.9,5.4,35.6,0.3,51C216.9,78.1,204.7,116.1,230.5,103.6z"/>
		<path class="st0" d="M240.2,25.6c-2.3,2.3,13.6,30.9,24.5,41.9c14.8,14.9,24.5,16.7,29.2,12c4.8-4.8,2.9-14.4-11.9-29.3
			C271,39.2,242.2,23.6,240.2,25.6z"/>
		<path class="st0" d="M559.8,463.5l-0.9-0.1c-4.3-0.6-8.6-1.5-12.9-2.7l-2.4-0.7l0.6,2.4c4.1,17.1,12.3,33.2,23.8,46.4l2.8,3.2
			v-24.5c-4.5-7.2-8.2-14.9-10.7-23.2L559.8,463.5z"/>
		<path class="st0" d="M472.4,419.5c2.8-2.8,5.8-5.6,8.9-8.2l0.9-0.8l-0.6-1.1c-1.8-3.4-3.5-7.1-5.1-11l-0.7-1.9l-1.6,1.3
			c-4.4,3.6-8.6,7.3-12.4,11.1c-26.9,27-43.2,62.8-45.9,100.8l-0.6,8.5l8.5-0.6c38-2.6,73.7-19,100.7-46c3.8-3.8,7.5-8,11.1-12.4
			l1.3-1.6L535,457c-3.8-1.5-7.5-3.2-10.9-5.1l-1.1-0.6l-0.8,0.9c-2.6,3.1-5.4,6.1-8.2,8.9c-22.2,22.2-51.4,36.6-82.4,40.8
			C435.8,470.9,450.2,441.7,472.4,419.5z"/>
		<path class="st0" d="M523.1,622.8c-1.1-1-2-0.9-4-0.2c0,0-85.5,32.4-162.5-44.6c-77-77-45.7-162.7-45.7-162.7
			c0.7-2.3,1.1-3.9-0.2-5.4l-45.2-45.3h-21.8l50.3,50.3c0.4,0.4,0.4,0.5,0.2,1c0,0-34.7,93.9,48.1,176.6s174.5,47.7,174.5,47.7
			c1.2-0.5,2-0.3,2.4,0.2l51.7,51.9v-21.9L523.1,622.8z"/>
		<path class="st0" d="M553,593.4c8.8-8.1,13.9-19.4,14.1-31.7c0.3-12.9-4.8-25.5-13.9-34.6c-17.9-17.9-47.2-18.2-65.3-0.6l-0.7,0.7
			c-10.9,10.9-10.9,28.7,0,39.7c5.3,5.3,12.3,8.2,19.8,8.2c7.5,0,14.2-2.3,19.5-7.6c2-2,2.8-5.9,2.4-8.4c-0.2-1.2-0.5-2.3-0.9-3.5
			c-0.6,1.1-1.2,2.2-1.8,3.1c-0.7,1.3-1.7,2.5-2.7,3.5c-3.2,3.2-7.5,5-12.1,5c-4.6,0-8.8-1.8-12.1-5c-5.6-5.6-6.6-14.2-2.5-21
			c0.3-0.6,0.7-1.2,1.2-1.7c0.4-0.5,0.8-1,1.3-1.5c1-1,2.1-1.9,3.4-2.7c12.1-8.6,28.5-7.2,39,3.3c6,6,9.3,14.3,9.1,22.7
			c-0.2,7.8-3.3,14.9-8.9,20c-9.9,9.1-20.3,15.3-30.8,18.5c-9.2,2.8-18.7,3.4-29,1.9c-19.8-3-38.8-13.4-57.1-23.5
			c-17.4-9.5-33.8-18.6-49.5-20c-1.5-15.7-10.5-32.2-20-49.6c-10-18.4-20.4-37.4-23.4-57.2c-1.6-10.3-0.9-19.8,1.9-29
			c3.2-10.5,9.4-20.9,18.5-30.8c5.1-5.5,12.2-8.7,19.9-8.9c8.4-0.2,16.7,3.1,22.7,9.1c10.5,10.5,11.9,26.9,3.2,39.1
			c-0.7,1.2-1.6,2.3-2.6,3.3c-0.5,0.5-1,0.9-1.5,1.3c-0.5,0.4-1.1,0.8-1.7,1.2c-6.7,4.1-15.3,3.1-20.9-2.5c-6.7-6.7-6.7-17.5,0-24.2
			c1-1.1,2.2-2,3.5-2.7c1.1-0.6,2.1-1.2,2.7-1.6c-0.7-0.3-1.9-0.7-3.1-1.1c-2.8-0.7-5.8,0.1-7.8,2.1c-10.9,10.9-10.9,28.7,0,39.7
			c10.9,10.9,28.7,10.9,39.6,0l0.6-0.6c17.6-18.2,17.4-47.6-0.5-65.5c-8.9-8.9-21-13.9-33.5-13.9c-0.3,0-0.7,0-1,0
			c-12.3,0.3-23.5,5.3-31.6,14.2c-1,1.1-2,2.2-2.9,3.3l-19.2-19.2h-19.1l30,30.1c-12.1,18.3-16.5,37.8-13.3,59.1
			c3.4,22.7,15,43.9,25.3,62.6c10,18.3,19.5,35.7,18.1,48.8c-0.3,2.5,0.6,5,2.4,6.7c1.8,1.8,4.2,2.7,6.8,2.5
			c13.1-1.4,30.4,8,48.8,18.1c18.7,10.2,39.9,21.9,62.5,25.3c21.3,3.2,40.7-1.2,59-13.3l32,32v-19.1l-21.1-21.1
			C550.8,595.3,551.9,594.4,553,593.4z"/>
		<path class="st0" d="M471.1,389.3l2.4,0.6l-0.7-2.4c-1.2-4.2-2-8.6-2.6-12.9l-0.1-0.9l-0.9-0.3c-7.1-2.1-13.7-5.1-20-8.8h-25.4
			l1,0.9C438,377,454,385.2,471.1,389.3z"/>
		<path class="st0" d="M605.8,462.5l0.6-2.4l-2.4,0.7c-4.2,1.2-8.5,2-12.9,2.7l-0.9,0.1l-0.3,0.9c-2.5,8.3-6.2,16.1-10.7,23.2v24.5
			l2.8-3.2C593.5,495.7,601.7,479.6,605.8,462.5z"/>
		<path class="st0" d="M677.6,419.5c22.2,22.2,36.6,51.5,40.7,82.5c-31-4.1-60.2-18.5-82.4-40.8c-2.8-2.8-5.6-5.8-8.2-8.9l-0.8-0.9
			l-1.1,0.6c-3.4,1.8-7.1,3.6-10.9,5.1l-1.9,0.7l1.3,1.6c3.6,4.4,7.3,8.6,11.1,12.4c26.9,27,62.7,43.3,100.7,46l8.5,0.6l-0.6-8.5
			c-2.6-38-18.9-73.8-45.9-100.8c-3.8-3.8-7.9-7.5-12.4-11.1l-1.6-1.3l-0.7,1.9c-1.5,3.9-3.2,7.5-5.1,11l-0.6,1.1l0.9,0.8
			C671.8,413.9,674.8,416.7,677.6,419.5z"/>
		<path class="st0" d="M839.3,409.9c-1.3,1.4-1,3.1-0.2,5.4c0,0,31.3,85.7-45.7,162.7s-162.5,44.6-162.5,44.6c-2-0.7-2.9-0.8-4,0.2
			l-47.7,47.6v21.9l51.7-51.9c0.4-0.5,1.2-0.8,2.4-0.2c0,0,91.7,35.1,174.5-47.7s48.1-176.6,48.1-176.6c-0.2-0.5-0.2-0.5,0.2-1
			l50.2-50.3h-21.8L839.3,409.9z"/>
		<path class="st0" d="M809.5,380.5c-8.1-8.9-19.3-13.9-31.6-14.2c-0.3,0-0.7,0-1,0c-12.5,0-24.7,5-33.5,13.9
			c-17.9,17.9-18.1,47.3-0.5,65.5l0.6,0.6c10.9,10.9,28.7,10.9,39.6,0c10.9-10.9,10.9-28.7,0-39.7c-2-2-5-2.8-7.8-2.1
			c-1.2,0.4-2.4,0.8-3.1,1.1c0.6,0.3,1.7,0.9,2.7,1.6c1.3,0.7,2.5,1.7,3.5,2.7c6.7,6.7,6.7,17.5,0,24.2c-5.6,5.6-14.2,6.6-20.9,2.5
			c-0.6-0.4-1.2-0.8-1.7-1.2c-0.5-0.4-1-0.9-1.5-1.3c-1-1-1.9-2.1-2.6-3.3c-8.6-12.2-7.3-28.6,3.2-39.1c6-6,14.3-9.4,22.7-9.1
			c7.8,0.2,14.9,3.3,19.9,8.9c9.1,10,15.3,20.3,18.5,30.8c2.8,9.2,3.4,18.7,1.9,29c-3,19.8-13.4,38.8-23.4,57.2
			c-9.5,17.4-18.5,33.9-20,49.6c-15.7,1.5-32.1,10.5-49.5,20c-18.4,10.1-37.4,20.5-57.1,23.5c-10.3,1.6-19.8,0.9-29-1.9
			c-10.5-3.2-20.8-9.4-30.8-18.5c-5.5-5.1-8.7-12.2-8.9-20c-0.2-8.4,3.1-16.7,9.1-22.7c10.5-10.5,26.9-11.9,39-3.3
			c1.3,0.8,2.4,1.7,3.4,2.7c0.5,0.5,0.9,1,1.3,1.5c0.5,0.6,0.9,1.1,1.2,1.7c4.1,6.8,3.1,15.4-2.5,21c-3.2,3.2-7.5,5-12.1,5
			c-4.6,0-8.8-1.8-12.1-5c-1.1-1.1-2-2.2-2.7-3.5c-0.6-0.9-1.2-2-1.8-3.1c-0.4,1.2-0.7,2.3-0.9,3.5c-0.3,2.5,0.4,6.4,2.4,8.4
			c5.3,5.3,12,7.6,19.5,7.6c7.5,0,14.5-2.9,19.8-8.2c10.9-10.9,10.9-28.7,0-39.7l-0.7-0.7c-18.1-17.6-47.4-17.3-65.3,0.6
			c-9.1,9.1-14.2,21.7-13.9,34.6c0.3,12.3,5.3,23.5,14.1,31.7c1.1,1,2.2,2,3.3,2.9l-21.1,21.1v19.1l32-32
			c18.3,12.2,37.8,16.6,59,13.3c22.6-3.4,43.8-15,62.5-25.3c18.3-10.1,35.6-19.5,48.8-18.1c2.5,0.3,5-0.6,6.8-2.5
			c1.8-1.7,2.7-4.2,2.4-6.7c-1.4-13.2,8-30.5,18.1-48.8c10.2-18.7,21.8-40,25.3-62.6c3.2-21.3-1.2-40.8-13.3-59.1l30-30.1h-19.1
			l-19.2,19.2C811.5,382.7,810.5,381.6,809.5,380.5z"/>
		<path class="st0" d="M679.9,373.6l-0.1,0.9c-0.6,4.3-1.5,8.6-2.6,12.9l-0.7,2.4l2.4-0.6c17.1-4.1,33.1-12.3,46.3-23.8l1-0.9h-25.4
			c-6.2,3.6-12.9,6.6-20,8.8L679.9,373.6z"/>
		<path class="st0" d="M678.9,331.5l-2.4-0.6l0.7,2.4c1.2,4.2,2,8.6,2.6,12.9l0.1,0.9l0.9,0.3c7.1,2.1,13.7,5.1,20,8.8h25.4l-1-0.9
			C712,343.8,696,335.6,678.9,331.5z"/>
		<path class="st0" d="M590.2,257.3l0.9,0.1c4.3,0.6,8.6,1.5,12.9,2.7l2.4,0.7l-0.6-2.4c-4.1-17.1-12.3-33.2-23.8-46.4l-2.8-3.2
			v24.5c4.5,7.2,8.2,14.9,10.7,23.2L590.2,257.3z"/>
		<path class="st0" d="M734.6,202.5l-8.5,0.6c-38,2.6-73.7,19-100.7,46c-3.8,3.8-7.5,8-11.1,12.4l-1.3,1.6l1.9,0.7
			c3.8,1.5,7.5,3.2,10.9,5.1l1.1,0.6l0.8-0.9c2.6-3.1,5.4-6.1,8.2-8.9c22.2-22.2,51.4-36.6,82.4-40.8c-4.1,31.1-18.5,60.3-40.7,82.5
			c-2.8,2.8-5.8,5.6-8.9,8.2l-0.9,0.8l0.6,1.1c1.8,3.4,3.5,7.1,5.1,11l0.7,1.9l1.6-1.3c4.4-3.6,8.6-7.3,12.4-11.1
			c26.9-27,43.2-62.8,45.9-100.8L734.6,202.5z"/>
		<path class="st0" d="M626.9,98c1.1,1,2,0.9,4,0.2c0,0,85.5-32.4,162.5,44.6s45.7,162.7,45.7,162.7c-0.7,2.3-1.1,3.9,0.2,5.4
			l45.2,45.3h21.8l-50.3-50.3c-0.4-0.4-0.4-0.5-0.2-1c0,0,34.7-93.9-48.1-176.6S633.3,80.6,633.3,80.6c-1.2,0.5-2,0.3-2.4-0.2
			l-51.7-51.9v21.9L626.9,98z"/>
		<path class="st0" d="M833.9,267c-3.4-22.7-15-43.9-25.3-62.6c-10-18.3-19.5-35.7-18.1-48.8c0.3-2.5-0.6-5-2.4-6.7
			c-1.8-1.8-4.2-2.7-6.8-2.5c-13.1,1.4-30.4-8-48.8-18.1c-18.7-10.2-39.9-21.9-62.5-25.3c-21.3-3.2-40.7,1.2-59,13.3l-32-32v19.1
			l21.1,21.1c-1.1,0.9-2.2,1.9-3.3,2.9c-8.8,8.1-13.9,19.4-14.1,31.7c-0.3,12.9,4.8,25.5,13.9,34.6c17.9,17.9,47.2,18.2,65.3,0.6
			l0.7-0.7c10.9-10.9,10.9-28.7,0-39.7c-5.3-5.3-12.3-8.2-19.8-8.2c-7.5,0-14.2,2.3-19.5,7.6c-2,2-2.8,5.9-2.4,8.4
			c0.2,1.2,0.5,2.3,0.9,3.5c0.6-1.1,1.2-2.2,1.8-3.1c0.7-1.3,1.7-2.5,2.7-3.5c3.2-3.2,7.5-5,12.1-5c4.6,0,8.8,1.8,12.1,5
			c5.6,5.6,6.6,14.2,2.5,21c-0.3,0.6-0.7,1.2-1.2,1.7c-0.4,0.5-0.8,1-1.3,1.5c-1,1-2.1,1.9-3.4,2.7c-12.1,8.6-28.5,7.2-39-3.3
			c-6-6-9.3-14.3-9.1-22.7c0.2-7.8,3.3-14.9,8.9-20c9.9-9.1,20.3-15.3,30.8-18.5c9.2-2.8,18.7-3.4,29-1.9
			c19.8,3,38.8,13.4,57.1,23.5c17.4,9.5,33.9,18.6,49.5,20c1.5,15.7,10.5,32.2,20,49.6c10,18.4,20.4,37.4,23.4,57.2
			c1.6,10.3,0.9,19.8-1.9,29c-3.2,10.5-9.4,20.9-18.5,30.8c-5.1,5.5-12.2,8.7-19.9,8.9c-8.4,0.2-16.7-3.1-22.7-9.1
			c-10.5-10.5-11.9-26.9-3.2-39.1c0.7-1.2,1.6-2.3,2.6-3.3c0.5-0.5,1-0.9,1.5-1.3c0.5-0.4,1.1-0.8,1.7-1.2
			c6.7-4.1,15.3-3.1,20.9,2.5c6.7,6.7,6.7,17.5,0,24.2c-1,1.1-2.2,2-3.5,2.7c-1.1,0.6-2.1,1.2-2.7,1.6c0.7,0.3,1.9,0.7,3.1,1.1
			c2.8,0.7,5.8-0.1,7.8-2.1c10.9-10.9,10.9-28.7,0-39.7c-10.9-10.9-28.7-10.9-39.6,0l-0.6,0.6c-17.6,18.2-17.4,47.6,0.5,65.5
			c8.9,8.9,21,13.9,33.5,13.9c0.3,0,0.7,0,1,0c12.3-0.3,23.5-5.3,31.6-14.2c1-1.1,2-2.2,2.9-3.3l19.2,19.2h19.1l-30-30.1
			C832.8,307.8,837.2,288.3,833.9,267z"/>
		<path class="st0" d="M544.2,258.3l-0.6,2.4l2.4-0.7c4.2-1.2,8.5-2,12.9-2.7l0.9-0.1l0.3-0.9c2.5-8.3,6.2-16.1,10.7-23.2v-24.5
			l-2.8,3.2C556.5,225.1,548.3,241.1,544.2,258.3z"/>
		<path class="st0" d="M472.4,301.3c-22.2-22.2-36.6-51.5-40.7-82.5c31,4.1,60.2,18.5,82.4,40.8c2.8,2.8,5.6,5.8,8.2,8.9l0.8,0.9
			l1.1-0.6c3.4-1.8,7.1-3.6,10.9-5.1l1.9-0.7l-1.3-1.6c-3.6-4.4-7.3-8.6-11.1-12.4c-26.9-27-62.7-43.3-100.7-46l-8.5-0.6l0.6,8.5
			c2.6,38,18.9,73.8,45.9,100.8c3.8,3.8,7.9,7.5,12.4,11.1l1.6,1.3l0.7-1.9c1.5-3.9,3.2-7.5,5.1-11l0.6-1.1l-0.9-0.8
			C478.2,306.9,475.2,304.1,472.4,301.3z"/>
		<path class="st0" d="M310.7,310.9c1.3-1.4,1-3.1,0.2-5.4c0,0-31.3-85.7,45.7-162.7c77-77,162.5-44.6,162.5-44.6
			c2,0.7,2.9,0.8,4-0.2l47.7-47.6V28.5l-51.7,51.9c-0.4,0.5-1.2,0.8-2.4,0.2c0,0-91.7-35.1-174.5,47.7s-48.1,176.6-48.1,176.6
			c0.2,0.5,0.2,0.5-0.2,1l-50.2,50.3h21.8L310.7,310.9z"/>
		<path class="st0" d="M340.5,340.3c8.1,8.9,19.3,13.9,31.6,14.2c0.3,0,0.7,0,1,0c12.5,0,24.7-5,33.5-13.9
			c17.9-17.9,18.1-47.3,0.5-65.5l-0.6-0.6c-10.9-10.9-28.7-10.9-39.6,0c-10.9,10.9-10.9,28.7,0,39.7c2,2,5,2.8,7.8,2.1
			c1.2-0.4,2.4-0.8,3.1-1.1c-0.6-0.3-1.7-0.9-2.7-1.6c-1.3-0.7-2.5-1.7-3.5-2.7c-6.7-6.7-6.7-17.5,0-24.2c5.6-5.6,14.2-6.6,20.9-2.5
			c0.6,0.4,1.2,0.8,1.7,1.2c0.5,0.4,1,0.9,1.5,1.3c1,1,1.9,2.1,2.6,3.3c8.6,12.2,7.3,28.6-3.2,39.1c-6,6-14.3,9.4-22.7,9.1
			c-7.8-0.2-14.9-3.3-19.9-8.9c-9.1-10-15.3-20.3-18.5-30.8c-2.8-9.2-3.4-18.7-1.9-29c3-19.8,13.4-38.8,23.4-57.2
			c9.5-17.4,18.5-33.9,20-49.6c15.7-1.5,32.1-10.5,49.5-20c18.4-10.1,37.4-20.5,57.1-23.5c10.3-1.6,19.8-0.9,29,1.9
			c10.5,3.2,20.8,9.4,30.8,18.5c5.5,5.1,8.7,12.2,8.9,20c0.2,8.4-3.1,16.7-9.1,22.7c-10.5,10.5-26.9,11.9-39,3.3
			c-1.3-0.8-2.4-1.7-3.4-2.7c-0.5-0.5-0.9-1-1.3-1.5c-0.5-0.6-0.9-1.1-1.2-1.7c-4.1-6.8-3.1-15.4,2.5-21c3.2-3.2,7.5-5,12.1-5
			c4.6,0,8.8,1.8,12.1,5c1.1,1.1,2,2.2,2.7,3.5c0.6,0.9,1.2,2,1.8,3.1c0.4-1.2,0.7-2.3,0.9-3.5c0.3-2.5-0.4-6.4-2.4-8.4
			c-5.3-5.3-12-7.6-19.5-7.6c-7.5,0-14.5,2.9-19.8,8.2c-10.9,10.9-10.9,28.7,0,39.7l0.7,0.7c18.1,17.6,47.4,17.3,65.3-0.6
			c9.1-9.1,14.2-21.7,13.9-34.6c-0.3-12.3-5.3-23.5-14.1-31.7c-1.1-1-2.2-2-3.3-2.9l21.1-21.1V84.3l-32,32
			c-18.3-12.2-37.8-16.6-59-13.3c-22.6,3.4-43.8,15-62.5,25.3c-18.3,10.1-35.6,19.5-48.8,18.1c-2.5-0.3-5,0.6-6.8,2.5
			c-1.8,1.7-2.7,4.2-2.4,6.7c1.4,13.2-8,30.5-18.1,48.8c-10.2,18.7-21.8,40-25.3,62.6c-3.2,21.3,1.2,40.8,13.3,59.1l-30,30.1h19.1
			l19.2-19.2C338.5,338.1,339.5,339.2,340.5,340.3z"/>
		<path class="st0" d="M470.1,347.2l0.1-0.9c0.6-4.3,1.5-8.6,2.6-12.9l0.7-2.4l-2.4,0.6c-17.1,4.1-33.1,12.3-46.3,23.8l-1,0.9h25.4
			c6.2-3.6,12.9-6.6,20-8.8L470.1,347.2z"/>
		<path class="st0" d="M595.6,321.4c4.4-0.5,3.9-7-0.5-6.7c0,0-8.2,0.6-15.8,0.9v40.6h18.5l-11.4-34
			C591.1,321.9,595.6,321.4,595.6,321.4z"/>
		<path class="st0" d="M551.3,321.4c0,0,4.2,0.5,8.5,0.8l10.9,29.9v-36.4c-8-0.2-18.9-1-18.9-1C547.5,314.4,546.9,321.1,551.3,321.4
			z"/>
		<path class="st0" d="M579.2,375.1l22.3,61c0.2,0.4,0.4,0.8,0.6,1.1c-7.2,2.5-14.9,4-22.9,4.4v9.2c46.6-2.1,84.2-39.7,86.3-86.3
			h-9.2c-1.4,28.3-17.3,52.8-40.4,66.2l22.9-66.2H629c-1.1,5.1-2.9,10.9-5.2,18l-8.1,27.2l-15.2-45.2h-21.3V375.1z"/>
		<path class="st0" d="M570,364.6l-15.3,45.9l-15.4-45.9h-25.1l25.2,69.1c-26-12.6-44.2-38.7-45.8-69.1h-9.2
			c2.1,46.6,39.7,84.2,86.3,86.3v-9.2c-6.5-0.3-12.8-1.4-18.8-3.1l18.8-54.7v-19.3H570z"/>
		<path class="st0" d="M579.2,269.9v9.2c19.6,1,37.3,8.8,50.8,21.2c-0.4,0-0.7-0.1-1.1-0.1c-8,0-13.7,7-13.7,14.5
			c0,6.7,3.9,12.4,8,19.1c3.1,5.4,6.7,12.4,6.7,22.4h11.8c3.8-10.4,5.2-18.9,5.2-26.5c0-3-0.2-5.8-0.5-8.4
			c5.7,10.5,9.2,22.3,9.8,34.9h9.2C663.4,309.5,625.8,272,579.2,269.9z"/>
		<path class="st0" d="M534.4,321.4c4.4-0.5,3.9-7-0.5-6.7c0,0-13.2,1-21.7,1c-1.5,0-3.3,0-5.2-0.1c13.9-21,37.2-35.2,63.9-36.6
			v-9.2c-46.6,2.1-84.2,39.7-86.3,86.3h9.2c0.5-10.3,2.9-20,6.9-29l10.6,29h25.4l-11.4-34C530,321.9,534.4,321.4,534.4,321.4z"/>
	</g>
</g>
</svg>
