<?xml version="1.0" encoding="utf-8"?>
<!-- Generator: Adobe Illustrator 27.1.1, SVG Export Plug-In . SVG Version: 6.00 Build 0)  -->
<svg version="1.1" id="Layer_1" xmlns="http://www.w3.org/2000/svg" xmlns:xlink="http://www.w3.org/1999/xlink" x="0px" y="0px"
	 viewBox="0 0 1200 400" style="enable-background:new 0 0 1200 400;" xml:space="preserve">
<style type="text/css">
	.st0{fill:#0073B4;}
	.st1{fill:#FAAF32;}
</style>
<g>
	<g>
		<g>
			<path class="st0" d="M602.7,95.4L577.9,171h-18.8l-16.6-51.2L525.4,171h-18.7l-24.8-75.6H500l17.1,53.1l17.8-53.1h16.2l17.3,53.5
				l17.6-53.5H602.7z"/>
			<path class="st0" d="M626.9,167.2c-6.3-3.4-11.2-8-14.8-14c-3.6-5.9-5.3-12.6-5.3-20c0-7.4,1.8-14.1,5.3-20
				c3.6-5.9,8.5-10.6,14.8-14c6.3-3.4,13.4-5.1,21.2-5.1c7.8,0,14.9,1.7,21.2,5.1c6.3,3.4,11.2,8,14.8,14c3.6,5.9,5.4,12.6,5.4,20
				c0,7.4-1.8,14.1-5.4,20c-3.6,5.9-8.5,10.6-14.8,14c-6.3,3.4-13.3,5.1-21.2,5.1C640.3,172.3,633.2,170.6,626.9,167.2z
				 M660.2,154.3c3.6-2.1,6.4-4.9,8.5-8.6c2.1-3.7,3.1-7.8,3.1-12.5s-1-8.9-3.1-12.5c-2.1-3.7-4.9-6.5-8.5-8.6
				c-3.6-2.1-7.6-3.1-12.1-3.1c-4.5,0-8.5,1-12.1,3.1c-3.6,2.1-6.4,4.9-8.5,8.6c-2.1,3.7-3.1,7.8-3.1,12.5s1,8.9,3.1,12.5
				c2.1,3.7,4.9,6.5,8.5,8.6c3.6,2.1,7.6,3.1,12.1,3.1C652.6,157.4,656.6,156.4,660.2,154.3z"/>
			<path class="st0" d="M750.8,171l-14.6-21h-0.9h-15.2v21h-17.5V95.4h32.7c6.7,0,12.5,1.1,17.4,3.3c4.9,2.2,8.7,5.4,11.4,9.5
				c2.7,4.1,4,9,4,14.6c0,5.6-1.4,10.5-4,14.5c-2.7,4.1-6.5,7.2-11.5,9.3l16.9,24.3H750.8z M746.3,113.1c-2.7-2.3-6.7-3.4-12-3.4
				h-14.2V136h14.2c5.3,0,9.2-1.2,12-3.5c2.7-2.3,4.1-5.5,4.1-9.7C750.4,118.6,749.1,115.4,746.3,113.1z"/>
			<path class="st0" d="M782,95.4h34.3c8.2,0,15.5,1.6,21.7,4.7c6.3,3.1,11.2,7.5,14.7,13.2c3.5,5.7,5.2,12.3,5.2,19.9
				c0,7.6-1.7,14.2-5.2,19.9c-3.5,5.7-8.4,10.1-14.7,13.2c-6.3,3.1-13.5,4.7-21.7,4.7H782V95.4z M815.4,156.6
				c7.6,0,13.6-2.1,18.1-6.3c4.5-4.2,6.7-9.9,6.7-17.1c0-7.2-2.2-12.9-6.7-17.1s-10.5-6.3-18.1-6.3h-16v46.8H815.4z"/>
			<path class="st0" d="M886.4,167.3c-6.2-3.3-11.1-8-14.7-13.9c-3.6-5.9-5.3-12.6-5.3-20.1c0-7.5,1.8-14.2,5.3-20.1
				s8.5-10.6,14.7-13.9c6.2-3.3,13.2-5,21-5c6.5,0,12.5,1.2,17.8,3.5c5.3,2.3,9.7,5.6,13.3,9.9l-11.2,10.4c-5.1-5.9-11.4-8.9-19-8.9
				c-4.7,0-8.9,1-12.5,3.1c-3.7,2.1-6.5,4.9-8.6,8.6c-2.1,3.7-3.1,7.8-3.1,12.5s1,8.9,3.1,12.5c2.1,3.7,4.9,6.5,8.6,8.6
				c3.7,2.1,7.8,3.1,12.5,3.1c7.6,0,13.9-3,19-9l11.2,10.4c-3.6,4.4-8.1,7.7-13.4,10c-5.3,2.3-11.3,3.5-17.8,3.5
				C899.6,172.3,892.6,170.6,886.4,167.3z"/>
			<path class="st0" d="M998.5,154.8h-35.1l-6.7,16.2h-17.9l33.7-75.6h17.3l33.8,75.6h-18.3L998.5,154.8z M993,141.5l-12-28.9
				l-12,28.9H993z"/>
			<path class="st0" d="M1100.2,171l-0.1-45.3l-22.2,37.3h-7.9l-22.1-36.4V171h-16.4V95.4h14.5l28.3,47l27.8-47h14.4l0.2,75.6
				H1100.2z"/>
			<path class="st0" d="M1184.6,98.8c4.9,2.2,8.7,5.4,11.4,9.5c2.7,4.1,4,9,4,14.6c0,5.5-1.3,10.4-4,14.5c-2.7,4.1-6.5,7.3-11.4,9.5
				c-4.9,2.2-10.7,3.3-17.4,3.3H1152V171h-17.5V95.4h32.7C1173.9,95.4,1179.7,96.6,1184.6,98.8z M1178.2,132.5
				c2.7-2.3,4.1-5.5,4.1-9.7c0-4.2-1.4-7.5-4.1-9.8c-2.7-2.3-6.7-3.4-12-3.4H1152v26.2h14.2C1171.5,135.9,1175.5,134.8,1178.2,132.5
				z"/>
		</g>
		<g>
			<g>
				<path class="st0" d="M492.4,226.1h8.4V298H545v7.2h-52.6V226.1z"/>
				<path class="st0" d="M558.9,226.1h8.4v79h-8.4V226.1z"/>
				<path class="st0" d="M597.9,303c-5.4-1.9-9.5-4.4-12.5-7.5l3.3-6.4c2.9,2.9,6.7,5.2,11.4,6.9c4.7,1.8,9.6,2.7,14.7,2.7
					c7.1,0,12.4-1.3,15.9-3.9c3.5-2.6,5.3-6,5.3-10.1c0-3.2-1-5.7-2.9-7.6c-1.9-1.9-4.3-3.3-7.1-4.3c-2.8-1-6.7-2.1-11.6-3.3
					c-5.9-1.5-10.7-3-14.2-4.3c-3.5-1.4-6.6-3.5-9.1-6.4c-2.5-2.9-3.8-6.7-3.8-11.6c0-4,1.1-7.6,3.2-10.9s5.3-5.9,9.7-7.8
					c4.4-2,9.8-2.9,16.3-2.9c4.5,0,8.9,0.6,13.3,1.9c4.3,1.2,8.1,3,11.2,5.1l-2.8,6.7c-3.3-2.2-6.9-3.8-10.6-4.9
					c-3.8-1.1-7.5-1.6-11.1-1.6c-6.9,0-12.1,1.3-15.6,4c-3.5,2.7-5.3,6.1-5.3,10.3c0,3.2,1,5.7,2.9,7.6c1.9,1.9,4.3,3.4,7.2,4.4
					c2.9,1,6.8,2.1,11.7,3.3c5.8,1.4,10.5,2.8,14.1,4.2c3.6,1.4,6.6,3.5,9.1,6.3c2.5,2.8,3.7,6.6,3.7,11.5c0,4-1.1,7.6-3.2,10.9
					c-2.1,3.3-5.4,5.9-9.9,7.8c-4.4,1.9-9.9,2.9-16.4,2.9C608.9,305.9,603.3,304.9,597.9,303z"/>
				<path class="st0" d="M724.3,271.1c2.8,3.4,4.2,7.7,4.2,12.9c0,6.8-2.5,12-7.5,15.6c-5,3.7-12.4,5.5-22.2,5.5h-36.4v-79h34.1
					c8.8,0,15.6,1.8,20.5,5.3c4.9,3.5,7.3,8.5,7.3,15c0,4.4-1.1,8.1-3.2,11.1c-2.1,3-5.1,5.3-8.9,6.8
					C717.4,265.5,721.4,267.8,724.3,271.1z M670.8,233v28.7H696c6.4,0,11.3-1.2,14.8-3.7c3.5-2.4,5.2-6,5.2-10.7
					c0-4.7-1.7-8.2-5.2-10.7c-3.5-2.4-8.4-3.7-14.8-3.7H670.8z M714.7,294.7c3.6-2.4,5.4-6.2,5.4-11.3c0-9.9-7.2-14.8-21.5-14.8
					h-27.9v29.7h27.9C705.8,298.3,711.1,297.1,714.7,294.7z"/>
				<path class="st0" d="M760.8,300.6c-6.4-3.5-11.3-8.3-14.9-14.4c-3.6-6.1-5.4-12.9-5.4-20.6c0-7.6,1.8-14.5,5.4-20.6
					c3.6-6.1,8.5-10.9,14.9-14.4c6.4-3.5,13.5-5.2,21.3-5.2c7.8,0,14.9,1.7,21.2,5.2c6.3,3.5,11.2,8.3,14.8,14.4
					c3.6,6.1,5.4,13,5.4,20.6c0,7.6-1.8,14.5-5.4,20.6s-8.6,10.9-14.8,14.4c-6.3,3.5-13.3,5.2-21.2,5.2
					C774.3,305.9,767.2,304.1,760.8,300.6z M799.1,294.2c5-2.8,9-6.7,11.9-11.7c2.9-5,4.3-10.6,4.3-16.8c0-6.2-1.4-11.8-4.3-16.8
					c-2.9-5-6.8-8.9-11.9-11.7c-5-2.8-10.7-4.2-16.9-4.2c-6.2,0-11.9,1.4-17,4.2c-5.1,2.8-9.1,6.7-12,11.7c-2.9,5-4.3,10.6-4.3,16.8
					c0,6.2,1.4,11.8,4.3,16.8c2.9,5,6.9,8.9,12,11.7c5.1,2.8,10.7,4.2,17,4.2C788.4,298.4,794,297,799.1,294.2z"/>
				<path class="st0" d="M890.8,284.1h-44l-9.5,21.1h-8.7l36.1-79h8.2l36.1,79h-8.8L890.8,284.1z M887.7,277.3l-19-42.5l-19,42.5
					H887.7z"/>
			</g>
			<g>
				<path class="st1" d="M999.3,298v7.2h-55.4v-5.8l32.9-32.2c4.1-4.1,6.9-7.6,8.4-10.6c1.5-3,2.2-6,2.2-9c0-4.7-1.6-8.3-4.8-10.9
					c-3.2-2.6-7.8-3.9-13.7-3.9c-9.3,0-16.4,2.9-21.6,8.8l-5.8-5c3.1-3.6,7-6.4,11.8-8.4c4.8-2,10.2-2.9,16.2-2.9
					c8.1,0,14.4,1.9,19.1,5.7c4.7,3.8,7.1,9,7.1,15.6c0,4.1-0.9,8-2.7,11.7c-1.8,3.8-5.2,8.1-10.3,13L955.9,298H999.3z"/>
				<path class="st1" d="M1024.2,301c-4.8-3.2-8.5-7.9-11.2-13.9s-4-13.2-4-21.4s1.3-15.3,4-21.4s6.4-10.7,11.2-13.9
					c4.8-3.2,10.2-4.9,16.3-4.9c6.1,0,11.5,1.6,16.3,4.9c4.8,3.2,8.5,7.9,11.2,13.9c2.7,6.1,4.1,13.2,4.1,21.4s-1.4,15.3-4.1,21.4
					c-2.7,6.1-6.5,10.7-11.2,13.9c-4.8,3.2-10.2,4.9-16.3,4.9C1034.5,305.9,1029,304.2,1024.2,301z M1052.7,294.6
					c3.5-2.6,6.2-6.3,8.2-11.2c2-4.9,2.9-10.8,2.9-17.7c0-6.9-1-12.8-2.9-17.7c-2-4.9-4.7-8.6-8.2-11.2c-3.5-2.6-7.5-3.8-12.1-3.8
					c-4.6,0-8.6,1.3-12.1,3.8c-3.5,2.6-6.2,6.3-8.2,11.2c-2,4.9-2.9,10.8-2.9,17.7c0,6.9,1,12.8,2.9,17.7c2,4.9,4.7,8.6,8.2,11.2
					c3.5,2.6,7.5,3.8,12.1,3.8C1045.1,298.4,1049.2,297.1,1052.7,294.6z"/>
				<path class="st1" d="M1137.5,298v7.2h-55.4v-5.8l32.9-32.2c4.1-4.1,6.9-7.6,8.4-10.6c1.5-3,2.2-6,2.2-9c0-4.7-1.6-8.3-4.8-10.9
					c-3.2-2.6-7.8-3.9-13.7-3.9c-9.3,0-16.4,2.9-21.6,8.8l-5.8-5c3.1-3.6,7-6.4,11.8-8.4c4.8-2,10.2-2.9,16.2-2.9
					c8.1,0,14.4,1.9,19.1,5.7c4.7,3.8,7.1,9,7.1,15.6c0,4.1-0.9,8-2.7,11.7c-1.8,3.8-5.2,8.1-10.3,13l-26.9,26.4H1137.5z"/>
				<path class="st1" d="M1193.5,266.7c4.3,4,6.5,9.3,6.5,15.8c0,4.5-1.1,8.5-3.3,12c-2.2,3.5-5.4,6.3-9.7,8.3c-4.3,2-9.5,3-15.7,3
					c-5.7,0-11.1-0.9-16.2-2.8c-5.1-1.8-9.2-4.3-12.3-7.4l4-6.4c2.6,2.7,6.1,4.9,10.5,6.6c4.4,1.7,9,2.5,14,2.5
					c6.5,0,11.5-1.4,15-4.2c3.5-2.8,5.3-6.7,5.3-11.7c0-4.9-1.8-8.7-5.3-11.5c-3.5-2.8-8.9-4.2-16-4.2h-5.6v-6l21.9-27.4h-40.4v-7.2
					h50.8v5.8l-22.4,28.1C1182.9,260.5,1189.2,262.7,1193.5,266.7z"/>
			</g>
		</g>
	</g>
	<g>
		<path class="st0" d="M197.3,195.9l-5.4-14.7c-2.2-0.1-4.2-0.4-4.2-0.4c-2.2-0.1-1.9-3.4,0.3-3.3c0,0,5.4,0.4,9.3,0.5v-18.1
			c-13.2,0.7-24.7,7.7-31.5,18c0.9,0,1.8,0,2.6,0c4.2,0,10.7-0.5,10.7-0.5c2.2-0.1,2.4,3.1,0.3,3.3c0,0-2.2,0.3-4.6,0.4l5.6,16.8
			h16.9V195.9z"/>
		<path class="st0" d="M60.9,173.1c0.2-0.2,0.2-0.2,0.1-0.5c0,0-17.1-46.3,23.7-87.1s86-23.5,86-23.5c0.6,0.3,1,0.2,1.2-0.1
			l25.5-25.6V0.6H0v197.3h36.1L60.9,173.1z M60.9,61.5c-2.4,2.4-7.1,1.4-14.4-5.9C41.1,50.2,33.2,36.1,34.4,35
			c1-1,15.2,6.7,20.6,12.1C62.3,54.4,63.2,59.2,60.9,61.5z M29,25.7c8.8,1.8,17.5,2.7,25.1,0.1c6.1-2.3,24.8-8.3,18.7,4.5
			C67.1,40.6,52,40.9,42,36.3c-3.1-1.3-13.5-6.2-13.9-9.9C28.1,25.9,28.5,25.6,29,25.7z M25.2,54.7c2.6-7.6,1.6-16.3-0.1-25.2
			c-0.1-0.4,0.2-0.9,0.7-0.8c3.7,0.4,8.6,10.8,9.9,13.9c4.6,10,4.4,25.1-6,30.8C16.9,79.6,22.9,60.9,25.2,54.7z"/>
		<path class="st0" d="M159.3,197.9h8.6l-5.2-14.3C160.8,188,159.6,192.9,159.3,197.9z"/>
		<path class="st0" d="M197.3,155.4v-18.1c-2.2,3.5-4,7.3-5.3,11.4l-0.1,0.4l-0.5,0.1c-2.1,0.3-4.3,0.7-6.3,1.3l-1.2,0.3l0.3-1.2
			c2-8.4,6.1-16.4,11.7-22.9l1.4-1.6V73.3l-10.4,10.4c0.5,0.5,1.1,0.9,1.6,1.4c4.4,4,6.8,9.5,7,15.6c0.1,6.3-2.4,12.6-6.8,17.1
			c-8.8,8.8-23.3,8.9-32.2,0.3l-0.4-0.3c-5.4-5.4-5.4-14.2,0-19.5c2.6-2.6,6.1-4,9.8-4c3.7,0,7,1.2,9.6,3.8c1,1,1.4,2.9,1.2,4.1
			c-0.1,0.6-0.3,1.2-0.4,1.7c-0.3-0.6-0.6-1.1-0.9-1.5c-0.4-0.6-0.8-1.2-1.3-1.7c-1.6-1.6-3.7-2.5-5.9-2.5c-2.2,0-4.4,0.9-5.9,2.5
			c-2.8,2.8-3.3,7-1.2,10.3c0.2,0.3,0.4,0.6,0.6,0.9c0.2,0.2,0.4,0.5,0.6,0.7c0.5,0.5,1,0.9,1.7,1.3c6,4.2,14,3.6,19.2-1.6
			c2.9-3,4.6-7,4.5-11.2c-0.1-3.8-1.6-7.3-4.4-9.8c-4.9-4.5-10-7.6-15.2-9.1c-4.5-1.4-9.2-1.7-14.3-0.9c-9.7,1.5-19.1,6.6-28.2,11.6
			c-8.6,4.7-16.7,9.1-24.4,9.9c-0.7,7.7-5.2,15.9-9.9,24.5c-5,9.1-10.1,18.4-11.5,28.2c-0.8,5.1-0.5,9.8,0.9,14.3
			c1.6,5.2,4.6,10.3,9.1,15.2c2.5,2.7,6,4.3,9.8,4.4c4.1,0.1,8.2-1.5,11.2-4.5c5.2-5.2,5.8-13.3,1.6-19.3c-0.4-0.6-0.8-1.1-1.3-1.6
			c-0.2-0.2-0.5-0.4-0.7-0.7c-0.3-0.2-0.5-0.4-0.9-0.6c-3.3-2-7.6-1.5-10.3,1.2c-3.3,3.3-3.3,8.6,0,11.9c0.5,0.5,1.1,1,1.7,1.3
			c0.5,0.3,1,0.6,1.3,0.8c-0.4,0.2-0.9,0.4-1.5,0.6c-1.4,0.4-2.9,0-3.9-1c-5.4-5.4-5.4-14.2,0-19.5c5.4-5.4,14.1-5.4,19.5,0l0.3,0.3
			c8.7,9,8.6,23.4-0.3,32.3c-4.4,4.4-10.4,6.9-16.5,6.9c-0.2,0-0.3,0-0.5,0c-6.1-0.1-11.6-2.6-15.6-7c-0.5-0.5-1-1.1-1.4-1.6
			l-9.4,9.5h51.9l0.5-0.4c6.5-5.7,14.4-9.7,22.8-11.7l1.2-0.3l-0.3,1.2c-0.6,2.1-1,4.2-1.3,6.3l-0.1,0.5l-0.4,0.1
			c-3.5,1.1-6.8,2.5-9.8,4.3h17.4C155.9,174.9,174.3,156.4,197.3,155.4z M153.4,175.8c-0.9,1.7-1.7,3.5-2.5,5.4l-0.4,0.9l-0.8-0.6
			c-2.2-1.8-4.2-3.6-6.1-5.5c-13.3-13.3-21.3-31-22.6-49.7l-0.3-4.2l4.2,0.3c18.7,1.3,36.3,9.4,49.6,22.7c1.9,1.9,3.7,3.9,5.5,6.1
			l0.6,0.8l-0.9,0.4c-1.9,0.8-3.7,1.6-5.4,2.5l-0.5,0.3l-0.4-0.5c-1.3-1.5-2.7-3-4-4.4c-10.9-10.9-25.3-18.1-40.6-20.1
			c2,15.3,9.1,29.7,20.1,40.7c1.4,1.4,2.9,2.7,4.4,4l0.5,0.4L153.4,175.8z"/>
		<path class="st0" d="M71.8,154c1.7-11.2,7.4-21.6,12.4-30.9c4.9-9,9.6-17.6,8.9-24.1c-0.1-1.2,0.3-2.5,1.2-3.3
			c0.9-0.9,2.1-1.3,3.3-1.2c6.5,0.7,15-4,24-8.9c9.2-5,19.7-10.8,30.8-12.5c10.5-1.6,20.1,0.6,29.1,6.6l15.7-15.8V47.2l-23.5,23.5
			c-0.5,0.5-1,0.5-2,0.1c0,0-42.1-16-80.1,22C53.8,130.7,69.2,173,69.2,173c0.4,1.1,0.5,1.9-0.1,2.6l-22.3,22.3h16.7l14.8-14.8
			C72.4,174.1,70.2,164.5,71.8,154z"/>
		<path class="st0" d="M226.9,62c0.2,0.3,0.6,0.4,1.2,0.1c0,0,45.2-17.3,86,23.5s23.7,87.1,23.7,87.1c-0.1,0.2-0.1,0.3,0.1,0.5
			l24.8,24.8h36.1V0.6H201.5v35.9L226.9,62z M337.9,61.5c-2.4-2.4-1.4-7.1,5.9-14.4c5.4-5.4,19.6-13.1,20.6-12.1
			c1.1,1.1-6.7,15.2-12.1,20.6C345,63,340.3,63.9,337.9,61.5z M373.7,29.6c-1.8,8.8-2.7,17.5-0.1,25.2c2.3,6.1,8.3,24.9-4.4,18.7
			c-10.4-5.7-10.6-20.8-6-30.8c1.3-3.1,6.2-13.5,9.9-13.9C373.5,28.7,373.8,29.1,373.7,29.6z M344.7,25.8c7.6,2.6,16.3,1.6,25.1-0.1
			c0.4-0.1,0.9,0.2,0.8,0.7c-0.4,3.7-10.7,8.6-13.9,9.9c-10,4.6-25.1,4.4-30.8-6C319.9,17.5,338.6,23.5,344.7,25.8z"/>
		<path class="st0" d="M234.9,184.9c0,3.8-0.7,8-2.6,13.1h7.1c-0.3-6.2-2-12.1-4.8-17.2C234.8,182,234.9,183.4,234.9,184.9z"/>
		<path class="st0" d="M329.6,173c0,0,15.4-42.2-22.5-80.2s-80.1-22-80.1-22c-1,0.3-1.4,0.4-2-0.1l-23.5-23.5v16.7l15.7,15.8
			c9-6,18.6-8.2,29.1-6.6c11.1,1.7,21.6,7.4,30.8,12.5c9,5,17.6,9.6,24,8.9c1.2-0.1,2.5,0.3,3.3,1.2c0.9,0.9,1.3,2.1,1.2,3.3
			c-0.7,6.5,4,15,8.9,24.1c5,9.2,10.8,19.7,12.4,30.9c1.6,10.5-0.6,20.1-6.6,29.1l14.8,14.8H352l-22.3-22.3
			C329.1,174.9,329.2,174.1,329.6,173z"/>
		<path class="st0" d="M219.3,177.5c0-3.7,2.8-7.1,6.7-7.1c0.2,0,0.3,0,0.5,0c-6.7-6.1-15.4-10-25.1-10.5v18
			c3.8-0.1,7.8-0.5,7.8-0.5c2.2-0.1,2.4,3.1,0.3,3.3c0,0-2.2,0.3-4.6,0.4l5.6,16.8h15.9c0-4.9-1.8-8.4-3.3-11
			C221.2,183.6,219.3,180.8,219.3,177.5z"/>
		<path class="st0" d="M315,190.1c-4,4.4-9.5,6.8-15.6,7c-0.2,0-0.3,0-0.5,0c-6.2,0-12.2-2.5-16.5-6.9c-8.8-8.8-8.9-23.3-0.3-32.3
			l0.3-0.3c5.4-5.4,14.1-5.4,19.5,0c5.4,5.4,5.4,14.2,0,19.5c-1,1-2.5,1.4-3.9,1c-0.6-0.2-1.2-0.4-1.5-0.6c0.3-0.2,0.8-0.5,1.3-0.8
			c0.6-0.4,1.2-0.8,1.7-1.3c3.3-3.3,3.3-8.6,0-11.9c-2.8-2.8-7-3.3-10.3-1.2c-0.3,0.2-0.6,0.4-0.9,0.6c-0.3,0.2-0.5,0.4-0.7,0.7
			c-0.5,0.5-0.9,1-1.3,1.6c-4.3,6-3.6,14.1,1.6,19.3c2.9,3,7,4.6,11.2,4.5c3.8-0.1,7.3-1.6,9.8-4.4c4.5-4.9,7.5-10,9.1-15.2
			c1.4-4.6,1.7-9.2,0.9-14.3c-1.5-9.8-6.6-19.1-11.5-28.2c-4.7-8.6-9.1-16.7-9.9-24.5c-7.7-0.7-15.8-5.2-24.4-9.9
			c-9.1-5-18.4-10.1-28.2-11.6c-5.1-0.8-9.7-0.5-14.3,0.9c-5.2,1.6-10.3,4.6-15.2,9.1c-2.7,2.5-4.3,6-4.4,9.8
			c-0.1,4.2,1.5,8.2,4.5,11.2c5.2,5.2,13.2,5.9,19.2,1.6c0.6-0.4,1.2-0.8,1.7-1.3c0.2-0.2,0.4-0.5,0.6-0.7c0.2-0.3,0.4-0.6,0.6-0.9
			c2-3.3,1.5-7.6-1.2-10.3c-1.6-1.6-3.7-2.5-5.9-2.5c-2.2,0-4.4,0.9-5.9,2.5c-0.5,0.5-1,1.1-1.3,1.7c-0.3,0.5-0.6,1-0.9,1.5
			c-0.2-0.6-0.3-1.1-0.4-1.7c-0.2-1.2,0.2-3.1,1.2-4.1c2.6-2.6,5.9-3.8,9.6-3.8c3.7,0,7.2,1.4,9.8,4c5.4,5.4,5.4,14.2,0,19.5
			l-0.4,0.3c-8.9,8.7-23.4,8.5-32.2-0.3c-4.5-4.5-7-10.7-6.8-17.1c0.1-6.1,2.6-11.6,7-15.6c0.5-0.5,1.1-1,1.6-1.4l-10.4-10.4v51.9
			l1.4,1.6c5.6,6.5,9.7,14.4,11.7,22.9l0.3,1.2l-1.2-0.3c-2.1-0.6-4.2-1-6.3-1.3l-0.5-0.1l-0.1-0.4c-1.2-4.1-3-7.9-5.3-11.4v18.1
			c23,1.1,41.5,19.6,42.5,42.5h17.4c-3.1-1.8-6.4-3.3-9.9-4.3l-0.4-0.1L251,193c-0.3-2.1-0.7-4.3-1.3-6.3l-0.3-1.2l1.2,0.3
			c8.4,2,16.3,6.1,22.8,11.7l0.5,0.4h51.9l-9.4-9.5C315.9,189,315.5,189.6,315,190.1z M255.2,176.1c-1.9,1.9-3.9,3.7-6.1,5.5
			l-0.8,0.6l-0.4-0.9c-0.8-1.9-1.6-3.7-2.5-5.4l-0.3-0.5l0.5-0.4c1.5-1.3,3-2.7,4.4-4c10.9-11,18-25.4,20.1-40.7
			c-15.3,2-29.7,9.1-40.6,20.1c-1.4,1.4-2.7,2.9-4,4.4l-0.4,0.5l-0.5-0.3c-1.7-0.9-3.5-1.8-5.4-2.5l-0.9-0.4l0.6-0.8
			c1.8-2.2,3.6-4.2,5.5-6.1c13.3-13.3,30.9-21.3,49.6-22.7l4.2-0.3l-0.3,4.2C276.5,145.1,268.4,162.8,255.2,176.1z"/>
		<path class="st0" d="M152.5,326.9c-11.1-1.7-21.6-7.4-30.8-12.5c-9-5-17.6-9.6-24-8.9c-1.2,0.1-2.5-0.3-3.3-1.2
			c-0.9-0.9-1.3-2.1-1.2-3.3c0.7-6.5-4-15-8.9-24.1c-5-9.2-10.8-19.7-12.4-30.9c-1.6-10.5,0.6-20.1,6.6-29.1l-14.8-14.8H46.8
			l22.3,22.3c0.6,0.7,0.5,1.5,0.1,2.6c0,0-15.4,42.2,22.5,80.2c37.9,37.9,80.1,22,80.1,22c1-0.3,1.4-0.4,2,0.1l23.5,23.5v-16.7
			l-15.7-15.8C172.6,326.3,163,328.5,152.5,326.9z"/>
		<path class="st0" d="M154.8,202.1h-17.4c3.1,1.8,6.4,3.3,9.9,4.3l0.4,0.1l0.1,0.5c0.3,2.1,0.7,4.3,1.3,6.3l0.3,1.2l-1.2-0.3
			c-8.4-2-16.3-6.1-22.8-11.7l-0.5-0.4H73l9.4,9.5c0.5-0.5,0.9-1.1,1.4-1.6c4-4.4,9.5-6.8,15.6-7c0.2,0,0.3,0,0.5,0
			c6.2,0,12.2,2.5,16.5,6.9c8.8,8.8,8.9,23.3,0.3,32.3l-0.3,0.3c-5.4,5.4-14.1,5.4-19.5,0c-5.4-5.4-5.4-14.2,0-19.5
			c1-1,2.5-1.4,3.9-1c0.6,0.2,1.2,0.4,1.5,0.6c-0.3,0.2-0.8,0.5-1.3,0.8c-0.6,0.4-1.2,0.8-1.7,1.3c-3.3,3.3-3.3,8.6,0,11.9
			c2.8,2.8,7,3.3,10.3,1.2c0.3-0.2,0.6-0.4,0.9-0.6c0.3-0.2,0.5-0.4,0.7-0.7c0.5-0.5,0.9-1,1.3-1.6c4.3-6,3.6-14.1-1.6-19.3
			c-2.9-3-7-4.6-11.2-4.5c-3.8,0.1-7.3,1.6-9.8,4.4c-4.5,4.9-7.5,10-9.1,15.2c-1.4,4.6-1.7,9.2-0.9,14.3c1.5,9.8,6.6,19.1,11.5,28.2
			c4.7,8.6,9.1,16.7,9.9,24.5c7.7,0.7,15.8,5.2,24.4,9.9c9.1,5,18.4,10.1,28.2,11.6c5.1,0.8,9.7,0.5,14.3-0.9
			c5.2-1.6,10.3-4.6,15.2-9.1c2.7-2.5,4.3-6,4.4-9.8c0.1-4.2-1.5-8.2-4.5-11.2c-5.2-5.2-13.2-5.9-19.2-1.6c-0.6,0.4-1.2,0.8-1.7,1.3
			c-0.2,0.2-0.4,0.5-0.6,0.7c-0.2,0.3-0.4,0.6-0.6,0.9c-2,3.3-1.5,7.6,1.2,10.3c1.6,1.6,3.7,2.5,5.9,2.5c2.2,0,4.4-0.9,5.9-2.5
			c0.5-0.5,1-1.1,1.3-1.7c0.3-0.5,0.6-1,0.9-1.5c0.2,0.6,0.3,1.1,0.4,1.7c0.2,1.2-0.2,3.1-1.2,4.1c-2.6,2.6-5.9,3.8-9.6,3.8
			c-3.7,0-7.2-1.4-9.8-4c-5.4-5.4-5.4-14.2,0-19.5l0.4-0.3c8.9-8.7,23.4-8.5,32.2,0.3c4.5,4.5,7,10.7,6.8,17.1
			c-0.1,6.1-2.6,11.6-7,15.6c-0.5,0.5-1.1,1-1.6,1.4l10.4,10.4v-51.9l-1.4-1.6c-5.6-6.5-9.7-14.4-11.7-22.9l-0.3-1.2l1.2,0.3
			c2.1,0.6,4.2,1,6.3,1.3l0.5,0.1l0.1,0.4c1.2,4.1,3,7.9,5.3,11.4v-18.1C174.4,243.6,155.9,225.1,154.8,202.1z M173.4,245.3l0.4-0.5
			l0.5,0.3c1.7,0.9,3.5,1.8,5.4,2.5l0.9,0.4l-0.6,0.8c-1.8,2.2-3.6,4.2-5.5,6.1c-13.3,13.3-30.9,21.3-49.6,22.7l-4.2,0.3l0.3-4.2
			c1.3-18.7,9.3-36.4,22.6-49.7c1.9-1.9,3.9-3.7,6.1-5.5l0.8-0.6l0.4,0.9c0.8,1.9,1.6,3.7,2.5,5.4l0.3,0.5l-0.5,0.4
			c-1.5,1.3-3,2.7-4.4,4c-10.9,11-18,25.4-20.1,40.7c15.3-2,29.7-9.1,40.6-20.1C170.8,248.3,172.1,246.8,173.4,245.3z"/>
		<path class="st0" d="M197.3,240.1v-28.5l-9.3,27C191,239.4,194.1,239.9,197.3,240.1z"/>
		<polygon class="st0" points="197,202.1 181.8,202.1 189.4,224.7 		"/>
		<path class="st0" d="M181.9,236.1l-12.4-34.1h-10.1C160.1,217.1,169.1,229.9,181.9,236.1z"/>
		<path class="st0" d="M171.9,338c-0.2-0.3-0.6-0.4-1.2-0.1c0,0-45.2,17.3-86-23.5S61,227.3,61,227.3c0.1-0.2,0.1-0.3-0.1-0.5
			l-24.8-24.8H0v197.3h197.3v-35.9L171.9,338z M60.9,338.5c2.4,2.4,1.4,7.1-5.9,14.4c-5.4,5.4-19.6,13.1-20.6,12.1
			c-1.1-1.1,6.7-15.2,12.1-20.6C53.8,337,58.5,336.1,60.9,338.5z M25.1,370.4c1.8-8.8,2.7-17.5,0.1-25.2c-2.3-6.1-8.3-24.9,4.4-18.7
			c10.4,5.7,10.6,20.8,6,30.8c-1.3,3.1-6.2,13.5-9.9,13.9C25.3,371.3,25,370.9,25.1,370.4z M54.1,374.2c-7.6-2.6-16.3-1.6-25.1,0.1
			c-0.4,0.1-0.9-0.2-0.8-0.7c0.4-3.7,10.7-8.6,13.9-9.9c10-4.6,25.1-4.4,30.8,6C78.9,382.5,60.2,376.5,54.1,374.2z"/>
		<path class="st0" d="M212.5,237.3l-11-30.1v32.8c3.9-0.2,7.7-0.9,11.3-2.2C212.6,237.7,212.5,237.5,212.5,237.3z"/>
		<path class="st0" d="M201.5,244.6v18.1c2.2-3.5,4-7.3,5.3-11.4l0.1-0.4l0.5-0.1c2.1-0.3,4.3-0.7,6.3-1.3l1.2-0.3l-0.3,1.2
			c-2,8.4-6.1,16.4-11.7,22.9l-1.4,1.6v51.9l10.4-10.4c-0.5-0.5-1.1-0.9-1.6-1.4c-4.4-4-6.8-9.5-7-15.6c-0.1-6.3,2.4-12.6,6.8-17.1
			c8.8-8.8,23.3-8.9,32.2-0.3l0.4,0.3c5.4,5.4,5.4,14.2,0,19.5c-2.6,2.6-6.1,4-9.8,4c-3.7,0-7-1.2-9.6-3.8c-1-1-1.4-2.9-1.2-4.1
			c0.1-0.6,0.3-1.2,0.4-1.7c0.3,0.6,0.6,1.1,0.9,1.5c0.4,0.6,0.8,1.2,1.3,1.7c1.6,1.6,3.7,2.5,5.9,2.5c2.2,0,4.4-0.9,5.9-2.5
			c2.8-2.8,3.3-7,1.2-10.3c-0.2-0.3-0.4-0.6-0.6-0.9c-0.2-0.2-0.4-0.5-0.6-0.7c-0.5-0.5-1-0.9-1.7-1.3c-6-4.2-14-3.6-19.2,1.6
			c-2.9,3-4.6,7-4.5,11.2c0.1,3.8,1.6,7.3,4.4,9.8c4.9,4.5,10,7.6,15.2,9.1c4.5,1.4,9.2,1.7,14.3,0.9c9.7-1.5,19.1-6.6,28.2-11.6
			c8.6-4.7,16.7-9.1,24.4-9.9c0.7-7.7,5.2-15.9,9.9-24.5c5-9.1,10.1-18.4,11.5-28.2c0.8-5.1,0.5-9.8-0.9-14.3
			c-1.6-5.2-4.6-10.3-9.1-15.2c-2.5-2.7-6-4.3-9.8-4.4c-4.1-0.1-8.2,1.5-11.2,4.5c-5.2,5.2-5.8,13.3-1.6,19.3
			c0.4,0.6,0.8,1.1,1.3,1.6c0.2,0.2,0.5,0.4,0.7,0.7c0.3,0.2,0.5,0.4,0.9,0.6c3.3,2,7.6,1.5,10.3-1.2c3.3-3.3,3.3-8.6,0-11.9
			c-0.5-0.5-1.1-1-1.7-1.3c-0.5-0.3-1-0.6-1.3-0.8c0.4-0.2,0.9-0.4,1.5-0.6c1.4-0.4,2.9,0,3.9,1c5.4,5.4,5.4,14.2,0,19.5
			c-5.4,5.4-14.1,5.4-19.5,0l-0.3-0.3c-8.7-9-8.6-23.4,0.3-32.3c4.4-4.4,10.4-6.9,16.5-6.9c0.2,0,0.3,0,0.5,0
			c6.1,0.1,11.6,2.6,15.6,7c0.5,0.5,1,1.1,1.4,1.6l9.4-9.5h-51.9l-0.5,0.4c-6.5,5.7-14.4,9.7-22.8,11.7l-1.2,0.3l0.3-1.2
			c0.6-2.1,1-4.2,1.3-6.3l0.1-0.5l0.4-0.1c3.5-1.1,6.8-2.5,9.8-4.3H244C243,225.1,224.5,243.6,201.5,244.6z M245.4,224.2
			c0.9-1.7,1.7-3.5,2.5-5.4l0.4-0.9l0.8,0.6c2.2,1.8,4.2,3.6,6.1,5.5c13.3,13.3,21.3,31,22.6,49.7l0.3,4.2l-4.2-0.3
			c-18.7-1.3-36.3-9.4-49.6-22.7c-1.9-1.9-3.7-3.9-5.5-6.1l-0.6-0.8l0.9-0.4c1.9-0.8,3.7-1.6,5.4-2.5l0.5-0.3l0.4,0.5
			c1.3,1.5,2.7,3,4,4.4c10.9,10.9,25.3,18.1,40.6,20.1c-2-15.3-9.1-29.7-20.1-40.7c-1.4-1.4-2.9-2.7-4.4-4l-0.5-0.4L245.4,224.2z"/>
		<path class="st0" d="M327,246c-1.7,11.2-7.4,21.6-12.4,30.9c-4.9,9-9.6,17.6-8.9,24.1c0.1,1.2-0.3,2.5-1.2,3.3
			c-0.9,0.9-2.1,1.3-3.3,1.2c-6.5-0.7-15,4-24,8.9c-9.2,5-19.7,10.8-30.8,12.5c-10.5,1.6-20.1-0.6-29.1-6.6l-15.7,15.8v16.7
			l23.5-23.5c0.5-0.5,1-0.5,2-0.1c0,0,42.1,16,80.1-22s22.5-80.2,22.5-80.2c-0.4-1.1-0.5-1.9,0.1-2.6l22.3-22.3h-16.7l-14.8,14.8
			C326.5,225.9,328.6,235.5,327,246z"/>
		<path class="st0" d="M338,226.9c-0.2,0.2-0.2,0.2-0.1,0.5c0,0,17.1,46.3-23.7,87.1s-86,23.5-86,23.5c-0.6-0.3-1-0.2-1.2,0.1
			l-25.5,25.6v35.9h197.3V202.1h-36.1L338,226.9z M337.9,338.5c2.4-2.4,7.1-1.4,14.4,5.9c5.4,5.4,13.2,19.5,12.1,20.6
			c-1,1-15.2-6.7-20.6-12.1C336.5,345.6,335.6,340.8,337.9,338.5z M369.9,374.3c-8.8-1.8-17.5-2.7-25.1-0.1
			c-6.1,2.3-24.8,8.3-18.7-4.5c5.7-10.4,20.8-10.7,30.8-6c3.1,1.3,13.5,6.2,13.9,9.9C370.7,374.1,370.3,374.4,369.9,374.3z
			 M373.6,345.3c-2.6,7.6-1.6,16.3,0.1,25.2c0.1,0.4-0.2,0.9-0.7,0.8c-3.7-0.4-8.6-10.8-9.9-13.9c-4.6-10-4.4-25.1,6-30.8
			C381.9,320.4,375.9,339.1,373.6,345.3z"/>
		<path class="st0" d="M239.5,202.1h-8.6l-11.3,32.6C231,228.1,238.8,216,239.5,202.1z"/>
		<path class="st0" d="M223.5,211c1.1-3.5,2-6.4,2.5-8.9h-14l7.5,22.3L223.5,211z"/>
	</g>
</g>
</svg>
