<?xml version="1.0" encoding="utf-8"?>
<!-- Generator: Adobe Illustrator 27.1.1, SVG Export Plug-In . SVG Version: 6.00 Build 0)  -->
<svg version="1.1" id="Layer_1" xmlns="http://www.w3.org/2000/svg" xmlns:xlink="http://www.w3.org/1999/xlink" x="0px" y="0px"
	 viewBox="0 0 1110 1200" style="enable-background:new 0 0 1110 1200;" xml:space="preserve">
<style type="text/css">
	.st0{fill:#0078B9;}
	.st1{fill:#FBB040;}
</style>
<g>
	<g>
		<g>
			<path class="st0" d="M187.1,875.1l-38.2,116.7h-29l-25.7-79l-26.5,79H38.9L0.5,875.1h28l26.3,82l27.5-82h25l26.7,82.7l27.2-82.7
				H187.1z"/>
			<path class="st0" d="M224.5,985.9c-9.7-5.2-17.3-12.4-22.8-21.6c-5.5-9.2-8.3-19.5-8.3-30.9c0-11.4,2.8-21.8,8.3-30.9
				c5.5-9.2,13.1-16.4,22.8-21.6c9.7-5.2,20.6-7.8,32.8-7.8c12.1,0,23,2.6,32.7,7.8c9.7,5.2,17.3,12.4,22.8,21.6s8.3,19.5,8.3,30.9
				c0,11.4-2.8,21.8-8.3,30.9s-13.2,16.4-22.8,21.6c-9.7,5.2-20.6,7.8-32.7,7.8C245.1,993.7,234.2,991.1,224.5,985.9z M275.9,966
				c5.6-3.2,9.9-7.6,13.1-13.3c3.2-5.7,4.8-12.1,4.8-19.3c0-7.2-1.6-13.7-4.8-19.3c-3.2-5.7-7.5-10.1-13.1-13.3
				c-5.6-3.2-11.8-4.8-18.7-4.8c-6.9,0-13.1,1.6-18.7,4.8c-5.6,3.2-9.9,7.6-13.1,13.3c-3.2,5.7-4.8,12.1-4.8,19.3
				c0,7.2,1.6,13.7,4.8,19.3c3.2,5.7,7.5,10.1,13.1,13.3c5.6,3.2,11.8,4.8,18.7,4.8C264.1,970.7,270.3,969.2,275.9,966z"/>
			<path class="st0" d="M415.7,991.7l-22.5-32.5h-1.3h-23.5v32.5h-27V875.1h50.5c10.3,0,19.3,1.7,26.9,5.2
				c7.6,3.4,13.5,8.3,17.6,14.7c4.1,6.3,6.2,13.8,6.2,22.5c0,8.7-2.1,16.1-6.3,22.4c-4.2,6.3-10.1,11.1-17.8,14.4l26.2,37.5H415.7z
				 M408.9,902.3c-4.2-3.5-10.4-5.3-18.5-5.3h-22v40.7h22c8.1,0,14.3-1.8,18.5-5.3c4.2-3.6,6.3-8.6,6.3-15
				C415.2,910.9,413.1,905.8,408.9,902.3z"/>
			<path class="st0" d="M463.9,875.1h53c12.7,0,23.9,2.4,33.6,7.2c9.7,4.8,17.3,11.6,22.7,20.4c5.4,8.8,8.1,19,8.1,30.7
				c0,11.7-2.7,21.9-8.1,30.7c-5.4,8.8-12.9,15.6-22.7,20.4c-9.7,4.8-20.9,7.3-33.6,7.3h-53V875.1z M515.6,969.6
				c11.7,0,21-3.3,27.9-9.8c6.9-6.5,10.4-15.3,10.4-26.4s-3.5-19.9-10.4-26.4c-6.9-6.5-16.2-9.8-27.9-9.8h-24.7v72.3H515.6z"/>
			<path class="st0" d="M625.2,986c-9.6-5.2-17.2-12.3-22.7-21.5c-5.5-9.2-8.2-19.5-8.2-31.1c0-11.6,2.7-21.9,8.2-31.1
				c5.5-9.2,13.1-16.3,22.7-21.5c9.6-5.2,20.4-7.8,32.4-7.8c10.1,0,19.3,1.8,27.4,5.3c8.2,3.6,15,8.7,20.6,15.3l-17.3,16
				c-7.9-9.1-17.7-13.7-29.3-13.7c-7.2,0-13.7,1.6-19.3,4.8c-5.7,3.2-10.1,7.6-13.3,13.3c-3.2,5.7-4.8,12.1-4.8,19.3
				c0,7.2,1.6,13.7,4.8,19.3c3.2,5.7,7.6,10.1,13.3,13.3c5.7,3.2,12.1,4.8,19.3,4.8c11.7,0,21.4-4.6,29.3-13.8l17.3,16
				c-5.6,6.8-12.4,11.9-20.7,15.5s-17.4,5.3-27.5,5.3C645.5,993.7,634.8,991.2,625.2,986z"/>
			<path class="st0" d="M798.3,966.7h-54.2l-10.3,25h-27.7l52-116.7h26.7l52.2,116.7h-28.3L798.3,966.7z M789.8,946.2l-18.5-44.7
				l-18.5,44.7H789.8z"/>
			<path class="st0" d="M955.3,991.7l-0.2-70l-34.3,57.7h-12.2l-34.2-56.2v68.5h-25.3V875.1h22.3l43.7,72.5l43-72.5h22.2l0.3,116.7
				H955.3z"/>
			<path class="st0" d="M1085.7,880.2c7.6,3.4,13.5,8.3,17.6,14.7c4.1,6.3,6.2,13.8,6.2,22.5c0,8.6-2.1,16-6.2,22.4
				c-4.1,6.4-10,11.3-17.6,14.7c-7.6,3.4-16.6,5.1-26.9,5.1h-23.5v32.2h-27V875.1h50.5C1069.1,875.1,1078.1,876.8,1085.7,880.2z
				 M1075.8,932.3c4.2-3.5,6.3-8.5,6.3-14.9c0-6.6-2.1-11.6-6.3-15.1c-4.2-3.5-10.4-5.3-18.5-5.3h-22v40.5h22
				C1065.4,937.6,1071.6,935.8,1075.8,932.3z"/>
		</g>
		<g>
			<g>
				<path class="st0" d="M16.8,1076.9h12.9v110.9H98v11.2H16.8V1076.9z"/>
				<path class="st0" d="M119.5,1076.9h12.9V1199h-12.9V1076.9z"/>
				<path class="st0" d="M179.7,1195.6c-8.3-2.9-14.7-6.7-19.3-11.5l5.1-9.9c4.4,4.4,10.3,8,17.6,10.7c7.3,2.7,14.9,4.1,22.7,4.1
					c10.9,0,19.1-2,24.6-6c5.5-4,8.2-9.2,8.2-15.6c0-4.9-1.5-8.8-4.4-11.7c-3-2.9-6.6-5.1-10.9-6.7c-4.3-1.6-10.3-3.3-18-5.1
					c-9.2-2.3-16.5-4.6-22-6.7c-5.5-2.1-10.1-5.4-14-9.9c-3.9-4.4-5.8-10.4-5.8-18c0-6.2,1.6-11.8,4.9-16.8c3.3-5.1,8.3-9.1,15-12.1
					c6.7-3,15.1-4.5,25.1-4.5c7,0,13.8,1,20.5,2.9c6.7,1.9,12.5,4.6,17.3,7.9l-4.4,10.3c-5.1-3.4-10.6-5.9-16.4-7.6
					c-5.8-1.7-11.5-2.5-17.1-2.5c-10.7,0-18.7,2.1-24.1,6.2c-5.4,4.1-8.1,9.4-8.1,16c0,4.9,1.5,8.8,4.4,11.8s6.7,5.2,11.2,6.8
					c4.5,1.6,10.5,3.3,18,5.1c8.9,2.2,16.2,4.4,21.7,6.5c5.5,2.2,10.2,5.4,14,9.8c3.8,4.4,5.8,10.3,5.8,17.7c0,6.2-1.7,11.8-5,16.8
					c-3.3,5.1-8.4,9.1-15.3,12s-15.3,4.4-25.3,4.4C196.7,1200,188,1198.5,179.7,1195.6z"/>
				<path class="st0" d="M374.8,1146.4c4.4,5.2,6.5,11.8,6.5,20c0,10.5-3.9,18.5-11.6,24.2c-7.7,5.6-19.2,8.5-34.3,8.5h-56.1v-122.1
					H332c13.6,0,24.2,2.7,31.6,8.2c7.5,5.5,11.2,13.2,11.2,23.2c0,6.7-1.7,12.5-5,17.2c-3.3,4.7-7.9,8.2-13.7,10.5
					C364.3,1137.7,370.5,1141.2,374.8,1146.4z M292.3,1087.5v44.3h38.9c9.9,0,17.5-1.9,22.8-5.7c5.3-3.8,8-9.3,8-16.5
					s-2.7-12.7-8-16.5c-5.3-3.8-13-5.7-22.8-5.7H292.3z M360.1,1182.7c5.6-3.7,8.4-9.5,8.4-17.4c0-15.2-11-22.8-33.1-22.8h-43.1
					v45.9h43.1C346.3,1188.3,354.5,1186.5,360.1,1182.7z"/>
				<path class="st0" d="M431.3,1191.9c-9.8-5.4-17.5-12.8-23-22.2s-8.3-20-8.3-31.7s2.8-22.3,8.3-31.7s13.2-16.8,23-22.2
					c9.8-5.4,20.8-8.1,32.9-8.1s23,2.7,32.7,8c9.7,5.3,17.3,12.8,22.9,22.2c5.6,9.5,8.4,20.1,8.4,31.8s-2.8,22.3-8.4,31.8
					c-5.6,9.5-13.2,16.9-22.9,22.2c-9.7,5.3-20.6,8-32.7,8S441.1,1197.3,431.3,1191.9z M490.3,1182c7.8-4.4,13.9-10.4,18.3-18.1
					c4.4-7.7,6.6-16.4,6.6-25.9c0-9.5-2.2-18.2-6.6-25.9c-4.4-7.7-10.5-13.8-18.3-18.1c-7.8-4.4-16.5-6.5-26.2-6.5
					c-9.7,0-18.4,2.2-26.2,6.5c-7.8,4.4-14,10.4-18.5,18.1c-4.5,7.7-6.7,16.4-6.7,25.9c0,9.5,2.2,18.2,6.7,25.9
					c4.5,7.7,10.6,13.8,18.5,18.1c7.8,4.4,16.6,6.5,26.2,6.5C473.8,1188.5,482.6,1186.3,490.3,1182z"/>
				<path class="st0" d="M631.9,1166.3h-68l-14.6,32.6h-13.4l55.8-122.1h12.7l55.8,122.1h-13.6L631.9,1166.3z M627.2,1155.9
					l-29.3-65.6l-29.3,65.6H627.2z"/>
			</g>
			<g>
				<path class="st1" d="M799.6,1187.8v11.2H714v-8.9l50.7-49.7c6.4-6.3,10.7-11.7,13-16.3c2.3-4.6,3.4-9.2,3.4-13.9
					c0-7.2-2.5-12.8-7.4-16.8c-4.9-4-12-6-21.2-6c-14.3,0-25.4,4.5-33.3,13.6l-8.9-7.7c4.8-5.6,10.8-9.9,18.2-12.9
					c7.4-3,15.7-4.5,25-4.5c12.4,0,22.3,2.9,29.6,8.8c7.3,5.9,10.9,13.9,10.9,24.1c0,6.3-1.4,12.3-4.2,18.1
					c-2.8,5.8-8.1,12.5-15.9,20.1l-41.5,40.8H799.6z"/>
				<path class="st1" d="M838,1192.5c-7.4-5-13.1-12.2-17.3-21.5c-4.1-9.4-6.2-20.4-6.2-33c0-12.7,2.1-23.7,6.2-33
					c4.1-9.4,9.9-16.5,17.3-21.5c7.4-5,15.8-7.5,25.2-7.5c9.4,0,17.8,2.5,25.2,7.5c7.4,5,13.2,12.2,17.4,21.5
					c4.2,9.4,6.3,20.4,6.3,33c0,12.7-2.1,23.7-6.3,33c-4.2,9.4-10,16.5-17.4,21.5c-7.4,5-15.8,7.5-25.2,7.5
					C853.8,1200,845.4,1197.5,838,1192.5z M882,1182.6c5.4-4,9.6-9.7,12.6-17.3c3-7.6,4.5-16.7,4.5-27.4c0-10.7-1.5-19.8-4.5-27.4
					c-3-7.6-7.2-13.3-12.6-17.3c-5.4-3.9-11.7-5.9-18.7-5.9s-13.3,2-18.7,5.9c-5.4,4-9.6,9.7-12.6,17.3c-3,7.6-4.5,16.7-4.5,27.4
					c0,10.7,1.5,19.8,4.5,27.4c3,7.6,7.2,13.3,12.6,17.3c5.4,4,11.7,5.9,18.7,5.9S876.6,1186.5,882,1182.6z"/>
				<path class="st1" d="M1013,1187.8v11.2h-85.6v-8.9l50.7-49.7c6.4-6.3,10.7-11.7,13-16.3c2.3-4.6,3.4-9.2,3.4-13.9
					c0-7.2-2.5-12.8-7.4-16.8c-4.9-4-12-6-21.2-6c-14.3,0-25.4,4.5-33.3,13.6l-8.9-7.7c4.8-5.6,10.8-9.9,18.2-12.9
					c7.4-3,15.7-4.5,25-4.5c12.4,0,22.3,2.9,29.6,8.8c7.3,5.9,10.9,13.9,10.9,24.1c0,6.3-1.4,12.3-4.2,18.1
					c-2.8,5.8-8.1,12.5-15.9,20.1l-41.5,40.8H1013z"/>
				<path class="st1" d="M1099.4,1139.6c6.7,6.2,10,14.3,10,24.3c0,7-1.7,13.2-5.1,18.6c-3.4,5.4-8.4,9.7-15,12.8
					c-6.6,3.1-14.7,4.7-24.2,4.7c-8.8,0-17.2-1.4-25-4.3c-7.8-2.8-14.2-6.7-18.9-11.4l6.1-9.9c4.1,4.2,9.5,7.6,16.2,10.2
					c6.7,2.6,13.9,3.9,21.6,3.9c10,0,17.7-2.2,23.2-6.5c5.5-4.4,8.2-10.4,8.2-18c0-7.6-2.7-13.5-8.2-17.8
					c-5.5-4.3-13.7-6.5-24.8-6.5h-8.7v-9.2l33.8-42.4h-62.4v-11.2h78.5v8.9l-34.5,43.4C1083,1129.9,1092.7,1133.4,1099.4,1139.6z"/>
			</g>
		</g>
	</g>
	<g>
		<path class="st0" d="M550.9,382.2l-10.5-28.8c-4.2-0.2-8.2-0.7-8.2-0.7c-4.2-0.3-3.7-6.7,0.5-6.5c0,0,10.5,0.8,18.3,1v-35.3
			c-25.8,1.3-48.3,15-61.6,35.3c1.8,0.1,3.6,0.1,5.1,0.1c8.2,0,21-1,21-1c4.2-0.2,4.7,6,0.5,6.5c0,0-4.3,0.5-9,0.7l11,32.8h33.1
			V382.2z"/>
		<path class="st0" d="M283.9,337.7c0.4-0.4,0.4-0.5,0.2-0.9c0,0-33.4-90.5,46.4-170.4s168.3-46,168.3-46c1.2,0.5,1.9,0.3,2.3-0.2
			l49.8-50V0H164.8v386.2h70.6L283.9,337.7z M283.9,119.3c-4.6,4.6-13.9,2.8-28.2-11.5c-10.5-10.6-25.9-38.2-23.6-40.4
			c2-2,29.8,13.1,40.3,23.7C286.7,105.4,288.5,114.7,283.9,119.3z M221.4,49.1c17.2,3.4,34.3,5.3,49.1,0.2
			c12-4.4,48.6-16.2,36.6,8.7c-11.1,20.3-40.7,20.9-60.2,11.8c-6.1-2.6-26.4-12.1-27.1-19.4C219.8,49.6,220.6,48.9,221.4,49.1z
			 M214.1,105.9c5-14.9,3.2-31.9-0.2-49.2c-0.2-0.8,0.5-1.7,1.3-1.6c7.3,0.7,16.8,21.1,19.4,27.2c9.1,19.5,8.5,49.2-11.7,60.3
			C197.9,154.6,209.7,117.9,214.1,105.9z"/>
		<path class="st0" d="M476.5,386.2h16.9l-10.2-27.9C479.4,366.8,477,376.3,476.5,386.2z"/>
		<path class="st0" d="M550.9,302.9v-35.4c-4.4,6.9-7.9,14.4-10.3,22.4l-0.3,0.9l-0.9,0.1c-4.2,0.6-8.3,1.4-12.4,2.6l-2.3,0.6
			l0.6-2.4c4-16.5,11.9-32,22.9-44.7l2.7-3.1V142.4l-20.3,20.4c1.1,0.9,2.1,1.8,3.2,2.8c8.5,7.8,13.4,18.7,13.6,30.5
			c0.3,12.4-4.6,24.6-13.4,33.4c-17.3,17.3-45.6,17.5-63,0.6l-0.7-0.6c-10.5-10.5-10.5-27.7,0-38.2c5.1-5.1,11.9-7.9,19.1-7.9
			c7.2,0,13.7,2.3,18.8,7.4c2,2,2.7,5.7,2.4,8.1c-0.2,1.1-0.5,2.3-0.9,3.4c-0.6-1.1-1.2-2.1-1.7-3c-0.7-1.2-1.6-2.4-2.6-3.4
			c-3.1-3.1-7.2-4.8-11.6-4.8c-4.4,0-8.5,1.7-11.6,4.8c-5.4,5.4-6.4,13.7-2.4,20.2c0.3,0.6,0.7,1.1,1.2,1.7c0.4,0.5,0.8,1,1.2,1.4
			c1,1,2,1.8,3.3,2.6c11.7,8.3,27.5,6.9,37.6-3.2c5.8-5.8,9-13.8,8.8-21.9c-0.2-7.5-3.2-14.4-8.5-19.3c-9.6-8.8-19.6-14.8-29.7-17.9
			c-8.9-2.7-18-3.3-28-1.8c-19.1,2.9-37.4,12.9-55.1,22.6c-16.8,9.2-32.6,17.9-47.8,19.3c-1.4,15.1-10.1,31-19.3,47.9
			c-9.7,17.7-19.7,36.1-22.6,55.2c-1.5,9.9-0.9,19.1,1.8,28c3.1,10.1,9.1,20.1,17.8,29.7c4.9,5.3,11.7,8.4,19.2,8.6
			c8.1,0.2,16.1-3,21.9-8.8c10.1-10.1,11.4-26,3.1-37.7c-0.7-1.2-1.5-2.2-2.5-3.2c-0.4-0.4-0.9-0.9-1.4-1.3
			c-0.5-0.4-1.1-0.8-1.7-1.2c-6.5-4-14.8-3-20.2,2.4c-6.4,6.4-6.4,16.9,0,23.3c1,1,2.2,1.9,3.4,2.6c1,0.6,2,1.2,2.6,1.5
			c-0.7,0.3-1.8,0.7-3,1.1c-2.7,0.7-5.6-0.1-7.5-2c-10.5-10.5-10.5-27.7,0-38.2c10.5-10.5,27.7-10.5,38.2,0l0.6,0.6
			c17,17.5,16.8,45.9-0.5,63.2c-8.6,8.6-20.3,13.4-32.3,13.4c-0.3,0-0.7,0-1,0c-11.8-0.3-22.7-5.1-30.5-13.7c-1-1.1-1.9-2.1-2.8-3.2
			l-18.5,18.5h101.6l1-0.8c12.7-11.1,28.1-19,44.7-23l2.3-0.6l-0.6,2.3c-1.1,4.1-2,8.3-2.6,12.4l-0.1,0.9l-0.9,0.3
			c-6.8,2.1-13.2,5-19.3,8.5h34C469.8,341.2,506,305,550.9,302.9z M465,342.9c-1.8,3.3-3.4,6.9-4.9,10.6l-0.7,1.8l-1.5-1.2
			c-4.3-3.4-8.3-7.1-11.9-10.7c-26-26-41.7-60.6-44.3-97.2l-0.6-8.2l8.2,0.6c36.6,2.6,71.1,18.3,97.1,44.3c3.7,3.7,7.3,7.7,10.7,12
			l1.2,1.5l-1.8,0.7c-3.7,1.5-7.3,3.1-10.5,4.9l-1,0.6l-0.7-0.9c-2.5-3-5.2-5.9-7.9-8.6c-21.4-21.4-49.6-35.3-79.5-39.3
			c4,30,17.9,58.2,39.2,79.6c2.7,2.7,5.6,5.4,8.6,7.9l0.9,0.7L465,342.9z"/>
		<path class="st0" d="M305.3,300.1c3.3-21.9,14.5-42.3,24.4-60.4c9.7-17.7,18.8-34.4,17.4-47.1c-0.3-2.4,0.6-4.8,2.3-6.5
			c1.7-1.8,4.1-2.6,6.5-2.4c12.7,1.4,29.4-7.8,47.1-17.5c18-9.9,38.5-21.1,60.3-24.4c20.5-3.1,39.3,1.1,56.9,12.9l30.8-30.9V91.2
			l-46,45.9c-1,1-2,0.9-3.9,0.2c0,0-82.5-31.2-156.7,43c-74.3,74.3-44.1,156.9-44.1,156.9c0.7,2.2,1,3.8-0.2,5.2l-43.6,43.7h32.7
			l29-29C306.4,339.5,302.2,320.7,305.3,300.1z"/>
		<path class="st0" d="M608.9,120.2c0.4,0.5,1.2,0.7,2.3,0.2c0,0,88.5-33.8,168.3,46s46.4,170.4,46.4,170.4
			c-0.2,0.5-0.2,0.5,0.2,0.9l48.5,48.5h70.6V0H559.1v70.2L608.9,120.2z M826.1,119.3c-4.6-4.6-2.8-13.9,11.5-28.3
			c10.5-10.6,38.4-25.7,40.3-23.7c2.2,2.2-13.1,29.8-23.6,40.4C840,122.1,830.7,123.9,826.1,119.3z M896.2,56.7
			c-3.4,17.3-5.3,34.3-0.2,49.2c4.4,12,16.2,48.7-8.7,36.6c-20.3-11.1-20.8-40.7-11.7-60.3c2.6-6.1,12.1-26.5,19.4-27.2
			C895.7,55,896.3,55.9,896.2,56.7z M839.4,49.3c14.9,5,31.9,3.2,49.1-0.2c0.8-0.2,1.7,0.5,1.6,1.3c-0.7,7.3-21,16.8-27.1,19.4
			c-19.5,9.1-49.1,8.5-60.2-11.8C790.8,33.1,827.4,44.9,839.4,49.3z"/>
		<path class="st0" d="M624.5,360.6c0,7.3-1.3,15.6-5,25.6h14c-0.6-12.2-3.9-23.6-9.5-33.7C624.3,355,624.5,357.7,624.5,360.6z"/>
		<path class="st0" d="M809.7,337.3c0,0,30.2-82.7-44.1-156.9s-156.7-43-156.7-43c-1.9,0.7-2.8,0.8-3.9-0.2l-46-45.9v32.7l30.8,30.9
			c17.7-11.7,36.4-16,56.9-12.9c21.8,3.3,42.3,14.5,60.3,24.4c17.7,9.7,34.4,18.9,47.1,17.5c2.4-0.3,4.8,0.6,6.5,2.4
			c1.7,1.7,2.6,4,2.3,6.5c-1.4,12.7,7.7,29.4,17.4,47.1c9.9,18.1,21.1,38.5,24.4,60.4c3.1,20.6-1.1,39.3-12.8,57l29,29h32.7
			L810,342.5C808.7,341.1,809,339.5,809.7,337.3z"/>
		<path class="st0" d="M593.9,346.1c0-7.2,5.5-14,13.2-14c0.3,0,0.7,0,1,0.1c-13.1-12-30.2-19.5-49-20.5V347
			c7.4-0.3,15.3-0.9,15.3-0.9c4.2-0.2,4.7,6,0.5,6.5c0,0-4.3,0.5-9,0.7l11,32.8h31.2c0-9.7-3.5-16.4-6.5-21.6
			C597.6,358.1,593.9,352.6,593.9,346.1z"/>
		<path class="st0" d="M781.2,370.9c-7.8,8.5-18.6,13.4-30.5,13.7c-0.3,0-0.7,0-1,0c-12.1,0-23.8-4.9-32.3-13.4
			c-17.3-17.3-17.5-45.6-0.5-63.2l0.6-0.6c10.5-10.5,27.7-10.5,38.2,0c10.5,10.5,10.5,27.7,0,38.2c-2,2-4.8,2.7-7.5,2
			c-1.2-0.4-2.3-0.8-3-1.1c0.6-0.3,1.6-0.9,2.6-1.5c1.2-0.7,2.4-1.6,3.4-2.6c6.4-6.4,6.4-16.9,0-23.3c-5.4-5.4-13.7-6.4-20.2-2.4
			c-0.6,0.3-1.2,0.7-1.7,1.2c-0.5,0.4-1,0.8-1.4,1.3c-1,1-1.8,2-2.5,3.2c-8.3,11.8-7,27.6,3.1,37.7c5.8,5.8,13.8,9,21.9,8.8
			c7.5-0.2,14.3-3.2,19.2-8.6c8.8-9.6,14.8-19.6,17.8-29.7c2.7-8.9,3.3-18.1,1.8-28c-2.9-19.1-12.9-37.4-22.6-55.2
			c-9.2-16.8-17.9-32.7-19.3-47.9c-15.1-1.4-31-10.1-47.8-19.3c-17.7-9.7-36-19.8-55.1-22.6c-9.9-1.5-19.1-0.9-28,1.8
			c-10.1,3.1-20.1,9.1-29.7,17.9c-5.3,4.9-8.4,11.7-8.5,19.3c-0.2,8.1,3,16.1,8.8,21.9c10.1,10.1,25.9,11.5,37.6,3.2
			c1.3-0.8,2.3-1.6,3.3-2.6c0.5-0.4,0.9-0.9,1.2-1.4c0.4-0.5,0.8-1.1,1.2-1.7c4-6.5,3-14.8-2.4-20.2c-3.1-3.1-7.2-4.8-11.6-4.8
			c-4.4,0-8.5,1.7-11.6,4.8c-1,1-1.9,2.2-2.6,3.4c-0.6,0.9-1.1,1.9-1.7,3c-0.4-1.1-0.7-2.2-0.9-3.4c-0.3-2.4,0.4-6.1,2.3-8.1
			c5.1-5.1,11.6-7.4,18.8-7.4c7.2,0,14,2.8,19.1,7.9c10.5,10.5,10.5,27.7,0,38.2l-0.7,0.6c-17.5,16.9-45.7,16.7-63-0.6
			c-8.8-8.8-13.7-21-13.4-33.4c0.3-11.9,5.1-22.7,13.6-30.5c1.1-1,2.1-1.9,3.2-2.8l-20.3-20.4v101.5l2.7,3.1
			c11.1,12.7,19,28.2,22.9,44.7l0.6,2.4l-2.3-0.6c-4.1-1.1-8.2-2-12.4-2.6l-0.9-0.1l-0.3-0.9c-2.4-8-5.9-15.5-10.3-22.4v35.4
			c45,2.1,81.2,38.3,83.2,83.2h34c-6-3.5-12.4-6.4-19.3-8.5l-0.9-0.3l-0.1-0.9c-0.6-4.2-1.4-8.3-2.6-12.4l-0.6-2.3l2.3,0.6
			c16.5,4,31.9,11.9,44.7,23l1,0.8h101.6L784,367.7C783.1,368.7,782.1,369.8,781.2,370.9z M664.1,343.4c-3.7,3.7-7.7,7.3-11.9,10.7
			l-1.5,1.2l-0.7-1.8c-1.5-3.7-3.1-7.3-4.9-10.6l-0.6-1l0.9-0.7c3-2.5,5.9-5.2,8.6-7.9c21.4-21.4,35.3-49.6,39.2-79.6
			c-29.9,4-58.1,17.9-79.5,39.3c-2.7,2.7-5.4,5.6-7.9,8.6l-0.7,0.9l-1-0.6c-3.3-1.8-6.8-3.4-10.5-4.9l-1.8-0.7l1.2-1.5
			c3.4-4.3,7-8.3,10.7-12c26-26,60.5-41.8,97.1-44.3l8.2-0.6l-0.6,8.2C705.8,282.8,690.1,317.3,664.1,343.4z"/>
		<path class="st0" d="M463.2,638.5c-21.8-3.3-42.3-14.5-60.3-24.4c-17.7-9.7-34.4-18.9-47.1-17.5c-2.4,0.3-4.8-0.6-6.5-2.4
			c-1.7-1.7-2.6-4-2.3-6.5c1.4-12.7-7.7-29.4-17.4-47.1c-9.9-18.1-21.1-38.5-24.4-60.4c-3.1-20.6,1.1-39.3,12.8-57l-29-29h-32.7
			l43.6,43.7c1.3,1.4,1,2.9,0.2,5.2c0,0-30.2,82.7,44.1,156.9c74.3,74.3,156.7,43,156.7,43c1.9-0.7,2.8-0.8,3.9,0.2l46,45.9v-32.7
			l-30.8-30.9C502.5,637.4,483.7,641.6,463.2,638.5z"/>
		<path class="st0" d="M467.7,394.3h-34c6,3.5,12.4,6.4,19.3,8.5l0.9,0.3l0.1,0.9c0.6,4.2,1.4,8.3,2.6,12.4l0.6,2.3l-2.3-0.6
			c-16.5-4-31.9-11.9-44.7-23l-1-0.8H307.6l18.5,18.5c0.9-1.1,1.8-2.1,2.8-3.2c7.8-8.5,18.6-13.4,30.5-13.7c0.3,0,0.7,0,1,0
			c12.1,0,23.8,4.9,32.3,13.4c17.3,17.3,17.5,45.6,0.5,63.2l-0.6,0.6c-10.5,10.5-27.7,10.5-38.2,0c-10.5-10.5-10.5-27.7,0-38.2
			c2-2,4.8-2.7,7.5-2c1.2,0.4,2.3,0.8,3,1.1c-0.6,0.3-1.6,0.9-2.6,1.5c-1.2,0.7-2.4,1.6-3.4,2.6c-6.4,6.4-6.4,16.9,0,23.3
			c5.4,5.4,13.7,6.4,20.2,2.4c0.6-0.3,1.2-0.7,1.7-1.2c0.5-0.4,1-0.8,1.4-1.3c1-1,1.8-2,2.5-3.2c8.3-11.8,7-27.6-3.1-37.7
			c-5.8-5.8-13.8-9-21.9-8.8c-7.5,0.2-14.3,3.2-19.2,8.6c-8.8,9.6-14.8,19.6-17.8,29.7c-2.7,8.9-3.3,18.1-1.8,28
			c2.9,19.1,12.9,37.4,22.6,55.2c9.2,16.8,17.9,32.7,19.3,47.9c15.1,1.4,31,10.1,47.8,19.3c17.7,9.7,36,19.7,55.1,22.6
			c9.9,1.5,19.1,0.9,28-1.8c10.1-3.1,20.1-9.1,29.7-17.9c5.3-4.9,8.4-11.7,8.5-19.3c0.2-8.1-3-16.1-8.8-21.9
			c-10.1-10.1-25.9-11.5-37.6-3.2c-1.3,0.8-2.3,1.6-3.3,2.6c-0.5,0.4-0.9,0.9-1.2,1.4c-0.4,0.5-0.8,1.1-1.2,1.7
			c-4,6.5-3,14.8,2.4,20.2c3.1,3.1,7.2,4.8,11.6,4.8c4.4,0,8.5-1.7,11.6-4.8c1-1,1.9-2.2,2.6-3.4c0.6-0.9,1.1-1.9,1.7-3
			c0.4,1.1,0.7,2.2,0.9,3.4c0.3,2.4-0.4,6.1-2.4,8.1c-5.1,5.1-11.6,7.4-18.8,7.4c-7.2,0-14-2.8-19.1-7.9
			c-10.5-10.5-10.5-27.7,0-38.2l0.7-0.6c17.5-16.9,45.7-16.7,63,0.6c8.8,8.8,13.7,21,13.4,33.4c-0.3,11.9-5.1,22.7-13.6,30.5
			c-1.1,1-2.1,1.9-3.2,2.8l20.3,20.4V536.6l-2.7-3.1c-11.1-12.7-19-28.2-22.9-44.7l-0.6-2.4l2.3,0.6c4.1,1.1,8.2,2,12.4,2.6l0.9,0.1
			l0.3,0.9c2.4,8,5.9,15.5,10.3,22.4v-35.4C506,475.5,469.8,439.3,467.7,394.3z M504.2,478.9l0.7-0.9l1,0.6
			c3.3,1.8,6.8,3.4,10.5,4.9l1.8,0.7l-1.2,1.5c-3.4,4.3-7,8.3-10.7,12c-26,26-60.5,41.8-97.1,44.3l-8.2,0.6l0.6-8.2
			c2.5-36.7,18.3-71.2,44.3-97.2c3.7-3.7,7.7-7.3,11.9-10.7l1.5-1.2l0.7,1.8c1.5,3.7,3.1,7.3,4.9,10.6l0.6,1l-0.9,0.7
			c-3,2.5-5.9,5.2-8.6,7.9c-21.4,21.4-35.3,49.6-39.2,79.6c29.9-4,58.1-17.9,79.5-39.3C499,484.8,501.6,481.9,504.2,478.9z"/>
		<path class="st0" d="M550.9,468.7v-55.8l-18.2,52.7C538.6,467.3,544.7,468.3,550.9,468.7z"/>
		<polygon class="st0" points="550.2,394.3 520.6,394.3 535.5,438.5 		"/>
		<path class="st0" d="M520.7,461l-24.3-66.7h-19.8C478.1,423.7,495.6,448.8,520.7,461z"/>
		<path class="st0" d="M501.1,660.3c-0.4-0.5-1.2-0.7-2.3-0.2c0,0-88.5,33.8-168.3-46s-46.4-170.4-46.4-170.4
			c0.2-0.5,0.2-0.5-0.2-0.9l-48.5-48.5h-70.6v386.2h386.2v-70.2L501.1,660.3z M283.9,661.2c4.6,4.6,2.8,13.9-11.5,28.3
			c-10.5,10.6-38.4,25.7-40.3,23.7c-2.2-2.2,13.1-29.8,23.6-40.4C270,658.4,279.3,656.6,283.9,661.2z M213.8,723.8
			c3.4-17.3,5.3-34.3,0.2-49.2c-4.4-12-16.2-48.7,8.7-36.6c20.3,11.1,20.8,40.7,11.7,60.3c-2.6,6.1-12.1,26.5-19.4,27.2
			C214.3,725.4,213.7,724.6,213.8,723.8z M270.6,731.1c-14.9-5-31.9-3.2-49.1,0.2c-0.8,0.2-1.7-0.5-1.6-1.3
			c0.7-7.3,21-16.8,27.1-19.4c19.5-9.1,49.1-8.5,60.2,11.8C319.2,747.3,282.6,735.6,270.6,731.1z"/>
		<path class="st0" d="M580.5,463.3l-21.5-58.9v64.2c7.7-0.4,15.1-1.8,22.1-4.3C580.9,464,580.7,463.7,580.5,463.3z"/>
		<path class="st0" d="M559.1,477.5V513c4.4-6.9,7.9-14.4,10.3-22.4l0.3-0.9l0.9-0.1c4.2-0.6,8.3-1.4,12.4-2.6l2.3-0.6l-0.6,2.4
			c-3.9,16.5-11.9,32-22.9,44.7l-2.7,3.1v101.5l20.3-20.4c-1.1-0.9-2.1-1.8-3.2-2.8c-8.5-7.8-13.4-18.7-13.6-30.5
			c-0.3-12.4,4.6-24.6,13.4-33.4c17.3-17.3,45.6-17.5,63-0.6l0.7,0.6c10.5,10.5,10.5,27.7,0,38.2c-5.1,5.1-11.9,7.9-19.1,7.9
			c-7.2,0-13.7-2.3-18.8-7.4c-2-2-2.7-5.7-2.3-8.1c0.2-1.1,0.5-2.3,0.9-3.4c0.6,1.1,1.2,2.1,1.7,3c0.7,1.2,1.6,2.4,2.6,3.4
			c3.1,3.1,7.2,4.8,11.6,4.8c4.4,0,8.5-1.7,11.6-4.8c5.4-5.4,6.4-13.7,2.4-20.2c-0.3-0.6-0.7-1.1-1.2-1.7c-0.4-0.5-0.8-1-1.2-1.4
			c-1-1-2-1.8-3.3-2.6c-11.7-8.3-27.5-6.9-37.6,3.2c-5.8,5.8-9,13.8-8.8,21.9c0.2,7.5,3.2,14.4,8.5,19.3
			c9.6,8.8,19.6,14.8,29.7,17.9c8.9,2.7,18,3.3,28,1.8c19.1-2.9,37.4-12.9,55.1-22.6c16.8-9.2,32.6-17.9,47.8-19.3
			c1.4-15.1,10.1-31,19.3-47.9c9.7-17.7,19.7-36.1,22.6-55.2c1.5-9.9,0.9-19.1-1.8-28c-3.1-10.1-9.1-20.1-17.8-29.7
			c-4.9-5.3-11.7-8.4-19.2-8.6c-8.1-0.2-16.1,3-21.9,8.8c-10.1,10.1-11.4,26-3.1,37.7c0.7,1.2,1.5,2.2,2.5,3.2
			c0.4,0.4,0.9,0.9,1.4,1.3c0.5,0.4,1.1,0.8,1.7,1.2c6.5,4,14.8,3,20.2-2.4c6.4-6.4,6.4-16.9,0-23.3c-1-1-2.2-1.9-3.4-2.6
			c-1-0.6-2-1.2-2.6-1.5c0.7-0.3,1.8-0.7,3-1.1c2.7-0.7,5.6,0.1,7.5,2c10.5,10.5,10.5,27.7,0,38.2c-10.5,10.5-27.7,10.5-38.2,0
			l-0.6-0.6c-17-17.5-16.8-45.9,0.5-63.2c8.6-8.6,20.3-13.4,32.3-13.4c0.3,0,0.7,0,1,0c11.8,0.3,22.7,5.1,30.5,13.7
			c1,1.1,1.9,2.1,2.8,3.2l18.5-18.5H700.8l-1,0.8c-12.7,11.1-28.1,19-44.7,23l-2.3,0.6l0.6-2.3c1.1-4.1,2-8.3,2.6-12.4l0.1-0.9
			l0.9-0.3c6.8-2.1,13.2-5,19.3-8.5h-34C640.2,439.3,604,475.5,559.1,477.5z M645,437.5c1.8-3.3,3.4-6.9,4.9-10.6l0.7-1.8l1.5,1.2
			c4.3,3.4,8.3,7.1,11.9,10.7c26,26,41.7,60.6,44.3,97.2l0.6,8.2l-8.2-0.6c-36.6-2.6-71.1-18.3-97.1-44.3c-3.7-3.7-7.3-7.7-10.7-12
			l-1.2-1.5l1.8-0.7c3.7-1.5,7.3-3.1,10.5-4.9l1-0.6l0.7,0.9c2.5,3,5.2,5.9,7.9,8.6c21.4,21.4,49.6,35.3,79.5,39.3
			c-4-30-17.9-58.2-39.2-79.6c-2.7-2.7-5.6-5.4-8.6-7.9l-0.9-0.7L645,437.5z"/>
		<path class="st0" d="M804.7,480.3c-3.3,21.9-14.5,42.3-24.4,60.4c-9.7,17.7-18.8,34.4-17.4,47.1c0.3,2.4-0.6,4.8-2.3,6.5
			c-1.7,1.8-4.1,2.6-6.5,2.4c-12.7-1.4-29.4,7.8-47.1,17.5c-18,9.9-38.5,21.1-60.3,24.4c-20.5,3.1-39.3-1.1-56.9-12.9l-30.8,30.9
			v32.7l46-45.9c1-1,2-0.9,3.9-0.2c0,0,82.5,31.2,156.7-43s44.1-156.9,44.1-156.9c-0.7-2.2-1-3.8,0.2-5.2l43.6-43.7h-32.7l-29,29
			C803.6,441,807.8,459.8,804.7,480.3z"/>
		<path class="st0" d="M826.1,442.8c-0.4,0.4-0.4,0.5-0.2,0.9c0,0,33.4,90.5-46.4,170.4s-168.3,46-168.3,46
			c-1.2-0.5-1.9-0.3-2.3,0.2l-49.8,50v70.2h386.2V394.3h-70.6L826.1,442.8z M826.1,661.2c4.6-4.6,13.9-2.8,28.2,11.5
			c10.5,10.6,25.9,38.2,23.6,40.4c-2,2-29.8-13.1-40.3-23.7C823.3,675.1,821.5,665.8,826.1,661.2z M888.6,731.4
			c-17.2-3.4-34.3-5.3-49.1-0.2c-12,4.4-48.6,16.2-36.6-8.7c11.1-20.3,40.7-20.9,60.2-11.8c6.1,2.6,26.4,12.1,27.1,19.4
			C890.2,730.9,889.4,731.5,888.6,731.4z M895.9,674.5c-5,14.9-3.2,31.9,0.2,49.2c0.2,0.8-0.5,1.7-1.3,1.6
			c-7.3-0.7-16.8-21.1-19.4-27.2c-9.1-19.5-8.5-49.2,11.7-60.3C912.1,625.9,900.3,662.5,895.9,674.5z"/>
		<path class="st0" d="M633.4,394.3h-16.8l-22.1,63.9C616.8,445.2,632,421.6,633.4,394.3z"/>
		<path class="st0" d="M602.1,411.7c2.1-6.9,3.9-12.5,5-17.4h-27.5l14.7,43.6L602.1,411.7z"/>
	</g>
</g>
</svg>
